<svg xmlns="http://www.w3.org/2000/svg" xmlns:xlink="http://www.w3.org/1999/xlink" width="400" zoomAndPan="magnify" viewBox="0 0 300 71.249999" height="95" preserveAspectRatio="xMidYMid meet" version="1.0"><path fill="#777976" d="M 66.453125 24.695312 L 64.3125 32.398438 L 57.273438 32.398438 L 66.453125 2.378906 L 75.359375 2.378906 L 84.667969 32.398438 L 77.363281 32.398438 L 75.050781 24.695312 Z M 74.070312 19.617188 L 72.199219 13.246094 C 71.664062 11.464844 71.132812 9.238281 70.6875 7.457031 L 70.597656 7.457031 C 70.152344 9.238281 69.707031 11.511719 69.214844 13.246094 L 67.433594 19.617188 Z M 74.070312 19.617188 " fill-opacity="1" fill-rule="nonzero"/><path fill="#777976" d="M 88.675781 32.398438 L 88.675781 2.378906 L 96.605469 2.378906 L 102.84375 13.382812 C 104.625 16.542969 106.40625 20.285156 107.742188 23.671875 L 107.875 23.671875 C 107.429688 19.707031 107.296875 15.652344 107.296875 11.15625 L 107.296875 2.378906 L 113.53125 2.378906 L 113.53125 32.398438 L 106.40625 32.398438 L 99.992188 20.820312 C 98.210938 17.613281 96.253906 13.738281 94.78125 10.21875 L 94.648438 10.261719 C 94.824219 14.226562 94.917969 18.457031 94.917969 23.355469 L 94.917969 32.398438 Z M 88.675781 32.398438 " fill-opacity="1" fill-rule="nonzero"/><path fill="#777976" d="M 119.410156 2.78125 C 121.90625 2.378906 125.15625 2.15625 128.589844 2.15625 C 134.289062 2.15625 137.988281 3.183594 140.878906 5.363281 C 144 7.679688 145.957031 11.375 145.957031 16.675781 C 145.957031 22.421875 143.863281 26.386719 140.96875 28.835938 C 137.804688 31.464844 132.996094 32.710938 127.117188 32.710938 C 123.601562 32.710938 121.105469 32.488281 119.410156 32.265625 Z M 126.226562 27.277344 C 126.804688 27.410156 127.738281 27.410156 128.589844 27.410156 C 134.734375 27.457031 138.746094 24.070312 138.746094 16.898438 C 138.789062 10.664062 135.136719 7.367188 129.300781 7.367188 C 127.789062 7.367188 126.804688 7.503906 126.230469 7.636719 L 126.230469 27.277344 Z M 126.226562 27.277344 " fill-opacity="1" fill-rule="nonzero"/><path fill="#f5f6f3" d="M 157.226562 2.378906 L 157.226562 13.914062 L 168.40625 13.914062 L 168.40625 2.378906 L 175.175781 2.378906 L 175.175781 32.398438 L 168.40625 32.398438 L 168.40625 19.839844 L 157.226562 19.839844 L 157.226562 32.398438 L 150.410156 32.398438 L 150.410156 2.378906 Z M 157.226562 2.378906 " fill-opacity="1" fill-rule="nonzero"/><path fill="#f5f6f3" d="M 181.097656 2.378906 L 187.914062 2.378906 L 187.914062 32.398438 L 181.097656 32.398438 Z M 181.097656 2.378906 " fill-opacity="1" fill-rule="nonzero"/><path fill="#f5f6f3" d="M 193.792969 2.378906 L 200.609375 2.378906 L 200.609375 32.398438 L 193.792969 32.398438 Z M 193.792969 2.378906 " fill-opacity="1" fill-rule="nonzero"/><path fill="#f5f6f3" d="M 211.277344 5.929688 C 211.277344 8.3125 209.40625 10.183594 206.972656 10.183594 C 204.539062 10.183594 202.640625 8.3125 202.640625 5.929688 C 202.640625 3.546875 204.5625 1.726562 206.972656 1.726562 C 209.382812 1.726562 211.277344 3.597656 211.277344 5.929688 Z M 203.71875 5.929688 C 203.71875 7.800781 205.101562 9.285156 206.996094 9.285156 C 208.890625 9.285156 210.199219 7.800781 210.199219 5.957031 C 210.199219 4.109375 208.84375 2.570312 206.972656 2.570312 C 205.101562 2.570312 203.71875 4.085938 203.71875 5.929688 Z M 206.304688 8.132812 L 205.332031 8.132812 L 205.332031 3.929688 C 205.714844 3.851562 206.253906 3.800781 206.945312 3.800781 C 207.738281 3.800781 208.097656 3.929688 208.40625 4.109375 C 208.640625 4.289062 208.816406 4.621094 208.816406 5.03125 C 208.816406 5.492188 208.457031 5.851562 207.945312 6.003906 L 207.945312 6.054688 C 208.351562 6.207031 208.585938 6.515625 208.710938 7.082031 C 208.839844 7.722656 208.917969 7.976562 209.019531 8.128906 L 207.972656 8.128906 C 207.84375 7.976562 207.765625 7.59375 207.636719 7.105469 C 207.5625 6.644531 207.304688 6.441406 206.765625 6.441406 L 206.304688 6.441406 Z M 206.328125 5.75 L 206.789062 5.75 C 207.328125 5.75 207.761719 5.570312 207.761719 5.132812 C 207.761719 4.75 207.484375 4.492188 206.867188 4.492188 C 206.609375 4.492188 206.429688 4.519531 206.328125 4.546875 Z M 206.328125 5.75 " fill-opacity="1" fill-rule="nonzero"/><path fill="#f5f6f3" d="M 59.566406 44.769531 L 58.414062 48.265625 L 56.929688 48.265625 L 60.703125 37.160156 L 62.433594 37.160156 L 66.222656 48.265625 L 64.691406 48.265625 L 63.503906 44.769531 Z M 63.207031 43.652344 L 62.121094 40.453125 C 61.871094 39.726562 61.707031 39.070312 61.542969 38.429688 L 61.507812 38.429688 C 61.34375 39.085938 61.164062 39.761719 60.949219 40.4375 L 59.863281 43.652344 Z M 63.207031 43.652344 " fill-opacity="1" fill-rule="nonzero"/><path fill="#f5f6f3" d="M 73.289062 47.96875 C 72.910156 48.167969 72.070312 48.429688 70.996094 48.429688 C 68.59375 48.429688 67.027344 46.796875 67.027344 44.359375 C 67.027344 41.921875 68.710938 40.125 71.3125 40.125 C 72.167969 40.125 72.925781 40.339844 73.324219 40.535156 L 72.992188 41.65625 C 72.648438 41.457031 72.101562 41.277344 71.3125 41.277344 C 69.484375 41.277344 68.496094 42.628906 68.496094 44.292969 C 68.496094 46.136719 69.683594 47.273438 71.261719 47.273438 C 72.085938 47.273438 72.628906 47.058594 73.042969 46.875 L 73.289062 47.960938 Z M 73.289062 47.96875 " fill-opacity="1" fill-rule="nonzero"/><path fill="#f5f6f3" d="M 79.402344 48.265625 L 79.285156 47.261719 L 79.238281 47.261719 C 78.792969 47.886719 77.933594 48.445312 76.800781 48.445312 C 75.1875 48.445312 74.363281 47.308594 74.363281 46.15625 C 74.363281 44.226562 76.078125 43.175781 79.15625 43.191406 L 79.15625 43.027344 C 79.15625 42.367188 78.976562 41.179688 77.34375 41.179688 C 76.601562 41.179688 75.828125 41.410156 75.269531 41.773438 L 74.9375 40.816406 C 75.597656 40.390625 76.554688 40.109375 77.558594 40.109375 C 79.996094 40.109375 80.59375 41.773438 80.59375 43.371094 L 80.59375 46.351562 C 80.59375 47.042969 80.625 47.71875 80.722656 48.261719 L 79.40625 48.261719 Z M 79.1875 44.195312 C 77.609375 44.160156 75.8125 44.441406 75.8125 45.992188 C 75.8125 46.929688 76.4375 47.375 77.179688 47.375 C 78.214844 47.375 78.875 46.71875 79.105469 46.042969 C 79.15625 45.894531 79.1875 45.730469 79.1875 45.582031 Z M 79.1875 44.195312 " fill-opacity="1" fill-rule="nonzero"/><path fill="#f5f6f3" d="M 89.8125 36.566406 L 89.8125 46.203125 C 89.8125 46.914062 89.828125 47.722656 89.878906 48.265625 L 88.578125 48.265625 L 88.507812 46.878906 L 88.476562 46.878906 C 88.03125 47.769531 87.058594 48.445312 85.757812 48.445312 C 83.828125 48.445312 82.347656 46.8125 82.347656 44.394531 C 82.332031 41.742188 83.980469 40.109375 85.921875 40.109375 C 87.144531 40.109375 87.964844 40.6875 88.328125 41.328125 L 88.359375 41.328125 L 88.359375 36.566406 Z M 88.363281 43.535156 C 88.363281 43.355469 88.347656 43.109375 88.296875 42.925781 C 88.082031 42.003906 87.292969 41.246094 86.203125 41.246094 C 84.707031 41.246094 83.8125 42.5625 83.8125 44.324219 C 83.8125 45.9375 84.605469 47.277344 86.167969 47.277344 C 87.144531 47.277344 88.03125 46.632812 88.296875 45.546875 C 88.34375 45.347656 88.363281 45.148438 88.363281 44.921875 Z M 88.363281 43.535156 " fill-opacity="1" fill-rule="nonzero"/><path fill="#f5f6f3" d="M 93.023438 44.542969 C 93.058594 46.503906 94.308594 47.308594 95.757812 47.308594 C 96.796875 47.308594 97.421875 47.128906 97.96875 46.898438 L 98.214844 47.933594 C 97.703125 48.167969 96.828125 48.429688 95.5625 48.429688 C 93.105469 48.429688 91.644531 46.816406 91.644531 44.40625 C 91.644531 42 93.058594 40.109375 95.382812 40.109375 C 97.984375 40.109375 98.679688 42.402344 98.679688 43.863281 C 98.679688 44.160156 98.644531 44.394531 98.628906 44.539062 L 93.027344 44.539062 Z M 97.273438 43.503906 C 97.289062 42.582031 96.894531 41.148438 95.265625 41.148438 C 93.796875 41.148438 93.15625 42.5 93.039062 43.503906 Z M 97.273438 43.503906 " fill-opacity="1" fill-rule="nonzero"/><path fill="#f5f6f3" d="M 100.472656 42.449219 C 100.472656 41.625 100.457031 40.953125 100.40625 40.292969 L 101.675781 40.292969 L 101.742188 41.578125 L 101.789062 41.578125 C 102.234375 40.820312 102.976562 40.109375 104.292969 40.109375 C 105.378906 40.109375 106.203125 40.769531 106.550781 41.707031 L 106.585938 41.707031 C 106.832031 41.261719 107.148438 40.917969 107.476562 40.671875 C 107.957031 40.308594 108.480469 40.109375 109.238281 40.109375 C 110.296875 40.109375 111.859375 40.800781 111.859375 43.570312 L 111.859375 48.265625 L 110.445312 48.265625 L 110.445312 43.75 C 110.445312 42.21875 109.882812 41.292969 108.714844 41.292969 C 107.890625 41.292969 107.246094 41.902344 107 42.609375 C 106.933594 42.808594 106.882812 43.070312 106.882812 43.335938 L 106.882812 48.265625 L 105.46875 48.265625 L 105.46875 43.488281 C 105.46875 42.21875 104.90625 41.296875 103.804688 41.296875 C 102.898438 41.296875 102.242188 42.023438 102.007812 42.746094 C 101.925781 42.957031 101.894531 43.207031 101.894531 43.453125 L 101.894531 48.265625 L 100.476562 48.265625 L 100.476562 42.449219 Z M 100.472656 42.449219 " fill-opacity="1" fill-rule="nonzero"/><path fill="#f5f6f3" d="M 114.523438 40.289062 L 116.269531 45 C 116.449219 45.527344 116.648438 46.152344 116.777344 46.632812 L 116.8125 46.632812 C 116.960938 46.152344 117.125 45.546875 117.320312 44.96875 L 118.902344 40.289062 L 120.433594 40.289062 L 118.257812 45.972656 C 117.222656 48.707031 116.511719 50.105469 115.523438 50.964844 C 114.816406 51.589844 114.109375 51.835938 113.746094 51.902344 L 113.382812 50.683594 C 113.746094 50.566406 114.222656 50.339844 114.652344 49.976562 C 115.046875 49.660156 115.542969 49.101562 115.871094 48.363281 C 115.941406 48.210938 115.988281 48.097656 115.988281 48.015625 C 115.988281 47.933594 115.953125 47.820312 115.890625 47.640625 L 112.941406 40.292969 L 114.519531 40.292969 Z M 114.523438 40.289062 " fill-opacity="1" fill-rule="nonzero"/><path fill="#f5f6f3" d="M 132.464844 44.210938 C 132.464844 47.164062 130.421875 48.445312 128.496094 48.445312 C 126.339844 48.445312 124.675781 46.867188 124.675781 44.34375 C 124.675781 41.675781 126.417969 40.109375 128.628906 40.109375 C 130.835938 40.109375 132.464844 41.773438 132.464844 44.210938 Z M 126.136719 44.296875 C 126.136719 46.039062 127.140625 47.359375 128.5625 47.359375 C 129.980469 47.359375 130.984375 46.054688 130.984375 44.261719 C 130.984375 42.910156 130.308594 41.199219 128.59375 41.199219 C 126.878906 41.199219 126.136719 42.777344 126.136719 44.296875 Z M 126.136719 44.296875 " fill-opacity="1" fill-rule="nonzero"/><path fill="#f5f6f3" d="M 134.441406 48.265625 L 134.441406 41.394531 L 133.324219 41.394531 L 133.324219 40.289062 L 134.441406 40.289062 L 134.441406 39.910156 C 134.441406 38.792969 134.691406 37.769531 135.363281 37.125 C 135.90625 36.597656 136.632812 36.382812 137.308594 36.382812 C 137.816406 36.382812 138.261719 36.5 138.542969 36.617188 L 138.34375 37.734375 C 138.132812 37.636719 137.835938 37.554688 137.421875 37.554688 C 136.1875 37.554688 135.875 38.640625 135.875 39.863281 L 135.875 40.289062 L 137.800781 40.289062 L 137.800781 41.394531 L 135.875 41.394531 L 135.875 48.265625 Z M 134.441406 48.265625 " fill-opacity="1" fill-rule="nonzero"/><path fill="#f5f6f3" d="M 142.648438 48.265625 L 142.648438 37.160156 L 144.210938 37.160156 L 147.769531 42.777344 C 148.59375 44.078125 149.238281 45.246094 149.761719 46.386719 L 149.792969 46.371094 C 149.664062 44.886719 149.628906 43.535156 149.628906 41.804688 L 149.628906 37.160156 L 150.980469 37.160156 L 150.980469 48.265625 L 149.53125 48.265625 L 146.003906 42.628906 C 145.230469 41.394531 144.488281 40.125 143.929688 38.921875 L 143.882812 38.9375 C 143.964844 40.339844 144 41.671875 144 43.515625 L 144 48.261719 L 142.648438 48.261719 Z M 142.648438 48.265625 " fill-opacity="1" fill-rule="nonzero"/><path fill="#f5f6f3" d="M 160.109375 46.089844 C 160.109375 46.914062 160.125 47.640625 160.175781 48.265625 L 158.890625 48.265625 L 158.808594 46.960938 L 158.777344 46.960938 C 158.398438 47.605469 157.554688 48.445312 156.140625 48.445312 C 154.890625 48.445312 153.386719 47.75 153.386719 44.949219 L 153.386719 40.289062 L 154.835938 40.289062 L 154.835938 44.703125 C 154.835938 46.21875 155.296875 47.242188 156.617188 47.242188 C 157.589844 47.242188 158.265625 46.566406 158.527344 45.925781 C 158.609375 45.710938 158.65625 45.445312 158.65625 45.183594 L 158.65625 40.289062 L 160.105469 40.289062 L 160.105469 46.089844 Z M 160.109375 46.089844 " fill-opacity="1" fill-rule="nonzero"/><path fill="#f5f6f3" d="M 164.261719 38 L 164.261719 40.292969 L 166.335938 40.292969 L 166.335938 41.398438 L 164.261719 41.398438 L 164.261719 45.695312 C 164.261719 46.683594 164.542969 47.246094 165.347656 47.246094 C 165.726562 47.246094 166.007812 47.195312 166.1875 47.148438 L 166.253906 48.234375 C 165.972656 48.347656 165.527344 48.433594 164.96875 48.433594 C 164.296875 48.433594 163.75 48.21875 163.40625 47.820312 C 162.992188 47.394531 162.84375 46.683594 162.84375 45.746094 L 162.84375 41.398438 L 161.609375 41.398438 L 161.609375 40.292969 L 162.84375 40.292969 L 162.84375 38.382812 L 164.257812 38.003906 Z M 164.261719 38 " fill-opacity="1" fill-rule="nonzero"/><path fill="#f5f6f3" d="M 167.96875 42.777344 C 167.96875 41.839844 167.953125 41.035156 167.902344 40.292969 L 169.171875 40.292969 L 169.21875 41.859375 L 169.285156 41.859375 C 169.648438 40.785156 170.523438 40.113281 171.496094 40.113281 C 171.660156 40.113281 171.777344 40.128906 171.90625 40.160156 L 171.90625 41.527344 C 171.757812 41.496094 171.609375 41.480469 171.414062 41.480469 C 170.390625 41.480469 169.667969 42.253906 169.46875 43.339844 C 169.4375 43.539062 169.402344 43.765625 169.402344 44.015625 L 169.402344 48.265625 L 167.96875 48.265625 Z M 167.96875 42.777344 " fill-opacity="1" fill-rule="nonzero"/><path fill="#f5f6f3" d="M 175.035156 38.050781 C 175.050781 38.542969 174.6875 38.941406 174.113281 38.941406 C 173.601562 38.941406 173.242188 38.542969 173.242188 38.050781 C 173.242188 37.554688 173.617188 37.144531 174.144531 37.144531 C 174.675781 37.144531 175.039062 37.539062 175.039062 38.050781 Z M 173.421875 48.265625 L 173.421875 40.289062 L 174.871094 40.289062 L 174.871094 48.265625 Z M 173.421875 48.265625 " fill-opacity="1" fill-rule="nonzero"/><path fill="#f5f6f3" d="M 179.023438 38 L 179.023438 40.292969 L 181.097656 40.292969 L 181.097656 41.398438 L 179.023438 41.398438 L 179.023438 45.695312 C 179.023438 46.683594 179.300781 47.246094 180.109375 47.246094 C 180.484375 47.246094 180.765625 47.195312 180.945312 47.148438 L 181.015625 48.234375 C 180.734375 48.347656 180.289062 48.433594 179.730469 48.433594 C 179.054688 48.433594 178.507812 48.21875 178.164062 47.820312 C 177.753906 47.394531 177.601562 46.683594 177.601562 45.746094 L 177.601562 41.398438 L 176.367188 41.398438 L 176.367188 40.292969 L 177.601562 40.292969 L 177.601562 38.382812 L 179.019531 38.003906 Z M 179.023438 38 " fill-opacity="1" fill-rule="nonzero"/><path fill="#f5f6f3" d="M 184.34375 38.050781 C 184.359375 38.542969 183.996094 38.941406 183.421875 38.941406 C 182.910156 38.941406 182.546875 38.542969 182.546875 38.050781 C 182.546875 37.554688 182.925781 37.144531 183.453125 37.144531 C 183.980469 37.144531 184.34375 37.539062 184.34375 38.050781 Z M 182.726562 48.265625 L 182.726562 40.289062 L 184.175781 40.289062 L 184.175781 48.265625 Z M 182.726562 48.265625 " fill-opacity="1" fill-rule="nonzero"/><path fill="#f5f6f3" d="M 193.800781 44.210938 C 193.800781 47.164062 191.753906 48.445312 189.832031 48.445312 C 187.671875 48.445312 186.007812 46.867188 186.007812 44.34375 C 186.007812 41.675781 187.753906 40.109375 189.960938 40.109375 C 192.171875 40.109375 193.800781 41.773438 193.800781 44.210938 Z M 187.472656 44.296875 C 187.472656 46.039062 188.476562 47.359375 189.894531 47.359375 C 191.3125 47.359375 192.316406 46.054688 192.316406 44.261719 C 192.316406 42.910156 191.644531 41.199219 189.929688 41.199219 C 188.214844 41.199219 187.472656 42.777344 187.472656 44.296875 Z M 187.472656 44.296875 " fill-opacity="1" fill-rule="nonzero"/><path fill="#f5f6f3" d="M 195.628906 42.449219 C 195.628906 41.625 195.613281 40.953125 195.558594 40.292969 L 196.84375 40.292969 L 196.925781 41.609375 L 196.960938 41.609375 C 197.355469 40.855469 198.277344 40.113281 199.597656 40.113281 C 200.699219 40.113281 202.414062 40.769531 202.414062 43.503906 L 202.414062 48.265625 L 200.964844 48.265625 L 200.964844 43.667969 C 200.964844 42.386719 200.484375 41.3125 199.117188 41.3125 C 198.164062 41.3125 197.421875 41.988281 197.175781 42.796875 C 197.105469 42.976562 197.078125 43.222656 197.078125 43.472656 L 197.078125 48.265625 L 195.628906 48.265625 Z M 195.628906 42.449219 " fill-opacity="1" fill-rule="nonzero"/><path fill="#f5f6f3" d="M 212.679688 48.265625 L 212.5625 47.261719 L 212.515625 47.261719 C 212.066406 47.886719 211.210938 48.445312 210.074219 48.445312 C 208.460938 48.445312 207.636719 47.308594 207.636719 46.15625 C 207.636719 44.226562 209.351562 43.175781 212.429688 43.191406 L 212.429688 43.027344 C 212.429688 42.367188 212.25 41.179688 210.617188 41.179688 C 209.878906 41.179688 209.101562 41.410156 208.542969 41.773438 L 208.214844 40.816406 C 208.875 40.390625 209.828125 40.109375 210.835938 40.109375 C 213.273438 40.109375 213.867188 41.773438 213.867188 43.371094 L 213.867188 46.351562 C 213.867188 47.042969 213.902344 47.71875 214 48.261719 L 212.679688 48.261719 Z M 212.464844 44.195312 C 210.882812 44.160156 209.085938 44.441406 209.085938 45.992188 C 209.085938 46.929688 209.714844 47.375 210.453125 47.375 C 211.492188 47.375 212.152344 46.71875 212.382812 46.042969 C 212.429688 45.894531 212.464844 45.730469 212.464844 45.582031 Z M 212.464844 44.195312 " fill-opacity="1" fill-rule="nonzero"/><path fill="#f5f6f3" d="M 216.207031 42.449219 C 216.207031 41.625 216.191406 40.953125 216.136719 40.292969 L 217.421875 40.292969 L 217.503906 41.609375 L 217.539062 41.609375 C 217.933594 40.855469 218.855469 40.113281 220.175781 40.113281 C 221.277344 40.113281 222.992188 40.769531 222.992188 43.503906 L 222.992188 48.265625 L 221.542969 48.265625 L 221.542969 43.667969 C 221.542969 42.386719 221.0625 41.3125 219.695312 41.3125 C 218.742188 41.3125 218 41.988281 217.753906 42.796875 C 217.683594 42.976562 217.65625 43.222656 217.65625 43.472656 L 217.65625 48.265625 L 216.207031 48.265625 Z M 216.207031 42.449219 " fill-opacity="1" fill-rule="nonzero"/><path fill="#f5f6f3" d="M 232.234375 36.566406 L 232.234375 46.203125 C 232.234375 46.914062 232.25 47.722656 232.300781 48.265625 L 231 48.265625 L 230.929688 46.878906 L 230.898438 46.878906 C 230.453125 47.769531 229.480469 48.445312 228.179688 48.445312 C 226.25 48.445312 224.769531 46.8125 224.769531 44.394531 C 224.753906 41.742188 226.402344 40.109375 228.34375 40.109375 C 229.566406 40.109375 230.386719 40.6875 230.75 41.328125 L 230.78125 41.328125 L 230.78125 36.566406 Z M 230.785156 43.535156 C 230.785156 43.355469 230.769531 43.109375 230.71875 42.925781 C 230.503906 42.003906 229.714844 41.246094 228.625 41.246094 C 227.128906 41.246094 226.238281 42.5625 226.238281 44.324219 C 226.238281 45.9375 227.027344 47.277344 228.589844 47.277344 C 229.566406 47.277344 230.453125 46.632812 230.71875 45.546875 C 230.765625 45.347656 230.785156 45.148438 230.785156 44.921875 Z M 230.785156 43.535156 " fill-opacity="1" fill-rule="nonzero"/><path fill="#f5f6f3" d="M 238.179688 37.308594 C 239.054688 37.175781 240.089844 37.078125 241.226562 37.078125 C 243.289062 37.078125 244.753906 37.554688 245.726562 38.460938 C 246.714844 39.367188 247.289062 40.652344 247.289062 42.449219 C 247.289062 44.246094 246.730469 45.746094 245.691406 46.765625 C 244.652344 47.804688 242.941406 48.363281 240.78125 48.363281 C 239.761719 48.363281 238.902344 48.316406 238.179688 48.234375 Z M 239.613281 47.125 C 239.976562 47.191406 240.503906 47.207031 241.0625 47.207031 C 244.125 47.207031 245.792969 45.492188 245.792969 42.5 C 245.808594 39.878906 244.324219 38.214844 241.296875 38.214844 C 240.554688 38.214844 239.992188 38.28125 239.613281 38.363281 L 239.613281 47.128906 Z M 239.613281 47.125 " fill-opacity="1" fill-rule="nonzero"/><path fill="#f5f6f3" d="M 250.714844 38.050781 C 250.730469 38.542969 250.371094 38.941406 249.792969 38.941406 C 249.285156 38.941406 248.921875 38.542969 248.921875 38.050781 C 248.921875 37.554688 249.300781 37.144531 249.828125 37.144531 C 250.355469 37.144531 250.71875 37.539062 250.71875 38.050781 Z M 249.101562 48.265625 L 249.101562 40.289062 L 250.550781 40.289062 L 250.550781 48.265625 Z M 249.101562 48.265625 " fill-opacity="1" fill-rule="nonzero"/><path fill="#f5f6f3" d="M 253.765625 44.542969 C 253.796875 46.503906 255.046875 47.308594 256.496094 47.308594 C 257.535156 47.308594 258.160156 47.128906 258.707031 46.898438 L 258.953125 47.933594 C 258.445312 48.167969 257.570312 48.429688 256.300781 48.429688 C 253.847656 48.429688 252.382812 46.816406 252.382812 44.40625 C 252.382812 42 253.796875 40.109375 256.121094 40.109375 C 258.726562 40.109375 259.417969 42.402344 259.417969 43.863281 C 259.417969 44.160156 259.382812 44.394531 259.367188 44.539062 L 253.765625 44.539062 Z M 258.015625 43.503906 C 258.027344 42.582031 257.636719 41.148438 256.003906 41.148438 C 254.535156 41.148438 253.894531 42.5 253.777344 43.503906 Z M 258.015625 43.503906 " fill-opacity="1" fill-rule="nonzero"/><path fill="#f5f6f3" d="M 262.957031 38 L 262.957031 40.292969 L 265.03125 40.292969 L 265.03125 41.398438 L 262.957031 41.398438 L 262.957031 45.695312 C 262.957031 46.683594 263.238281 47.246094 264.042969 47.246094 C 264.421875 47.246094 264.703125 47.195312 264.882812 47.148438 L 264.949219 48.234375 C 264.667969 48.347656 264.222656 48.433594 263.664062 48.433594 C 262.988281 48.433594 262.445312 48.21875 262.097656 47.820312 C 261.6875 47.394531 261.539062 46.683594 261.539062 45.746094 L 261.539062 41.398438 L 260.300781 41.398438 L 260.300781 40.292969 L 261.539062 40.292969 L 261.539062 38.382812 L 262.953125 38.003906 Z M 262.957031 38 " fill-opacity="1" fill-rule="nonzero"/><path fill="#f5f6f3" d="M 267.375 44.542969 C 267.40625 46.503906 268.65625 47.308594 270.105469 47.308594 C 271.144531 47.308594 271.769531 47.128906 272.316406 46.898438 L 272.5625 47.933594 C 272.054688 48.167969 271.179688 48.429688 269.910156 48.429688 C 267.457031 48.429688 265.992188 46.816406 265.992188 44.40625 C 265.992188 42 267.40625 40.109375 269.730469 40.109375 C 272.335938 40.109375 273.027344 42.402344 273.027344 43.863281 C 273.027344 44.160156 272.992188 44.394531 272.976562 44.539062 L 267.375 44.539062 Z M 271.625 43.503906 C 271.640625 42.582031 271.246094 41.148438 269.613281 41.148438 C 268.144531 41.148438 267.503906 42.5 267.390625 43.503906 Z M 271.625 43.503906 " fill-opacity="1" fill-rule="nonzero"/><path fill="#f5f6f3" d="M 276.566406 38 L 276.566406 40.292969 L 278.640625 40.292969 L 278.640625 41.398438 L 276.566406 41.398438 L 276.566406 45.695312 C 276.566406 46.683594 276.847656 47.246094 277.652344 47.246094 C 278.03125 47.246094 278.3125 47.195312 278.492188 47.148438 L 278.558594 48.234375 C 278.277344 48.347656 277.832031 48.433594 277.273438 48.433594 C 276.597656 48.433594 276.054688 48.21875 275.707031 47.820312 C 275.296875 47.394531 275.148438 46.683594 275.148438 45.746094 L 275.148438 41.398438 L 273.910156 41.398438 L 273.910156 40.292969 L 275.148438 40.292969 L 275.148438 38.382812 L 276.5625 38.003906 Z M 276.566406 38 " fill-opacity="1" fill-rule="nonzero"/><path fill="#f5f6f3" d="M 281.886719 38.050781 C 281.902344 38.542969 281.542969 38.941406 280.964844 38.941406 C 280.457031 38.941406 280.09375 38.542969 280.09375 38.050781 C 280.09375 37.554688 280.472656 37.144531 281 37.144531 C 281.527344 37.144531 281.890625 37.539062 281.890625 38.050781 Z M 280.273438 48.265625 L 280.273438 40.289062 L 281.722656 40.289062 L 281.722656 48.265625 Z M 280.273438 48.265625 " fill-opacity="1" fill-rule="nonzero"/><path fill="#f5f6f3" d="M 289.808594 47.96875 C 289.429688 48.167969 288.589844 48.429688 287.519531 48.429688 C 285.113281 48.429688 283.550781 46.796875 283.550781 44.359375 C 283.550781 41.921875 285.230469 40.125 287.832031 40.125 C 288.691406 40.125 289.445312 40.339844 289.84375 40.535156 L 289.511719 41.65625 C 289.167969 41.457031 288.621094 41.277344 287.832031 41.277344 C 286.003906 41.277344 285.015625 42.628906 285.015625 44.292969 C 285.015625 46.136719 286.203125 47.273438 287.785156 47.273438 C 288.609375 47.273438 289.152344 47.058594 289.5625 46.875 L 289.808594 47.960938 Z M 289.808594 47.96875 " fill-opacity="1" fill-rule="nonzero"/><path fill="#f5f6f3" d="M 291.3125 46.78125 C 291.738281 47.0625 292.496094 47.359375 293.21875 47.359375 C 294.277344 47.359375 294.769531 46.832031 294.769531 46.171875 C 294.769531 45.480469 294.359375 45.101562 293.289062 44.703125 C 291.855469 44.195312 291.179688 43.402344 291.179688 42.445312 C 291.179688 41.160156 292.214844 40.105469 293.929688 40.105469 C 294.738281 40.105469 295.449219 40.339844 295.894531 40.601562 L 295.53125 41.65625 C 295.214844 41.457031 294.640625 41.195312 293.898438 41.195312 C 293.039062 41.195312 292.566406 41.691406 292.566406 42.28125 C 292.566406 42.941406 293.042969 43.238281 294.082031 43.632812 C 295.464844 44.160156 296.171875 44.851562 296.171875 46.035156 C 296.171875 47.4375 295.085938 48.425781 293.191406 48.425781 C 292.320312 48.425781 291.511719 48.210938 290.953125 47.882812 L 291.316406 46.777344 Z M 291.3125 46.78125 " fill-opacity="1" fill-rule="nonzero"/><path fill="#f5f6f3" d="M 59.203125 53.027344 L 59.203125 57.671875 L 64.574219 57.671875 L 64.574219 53.027344 L 66.023438 53.027344 L 66.023438 64.132812 L 64.574219 64.132812 L 64.574219 58.925781 L 59.203125 58.925781 L 59.203125 64.132812 L 57.769531 64.132812 L 57.769531 53.027344 Z M 59.203125 53.027344 " fill-opacity="1" fill-rule="nonzero"/><path fill="#f5f6f3" d="M 69.269531 60.40625 C 69.304688 62.367188 70.554688 63.171875 72.003906 63.171875 C 73.042969 63.171875 73.667969 62.992188 74.214844 62.761719 L 74.460938 63.800781 C 73.949219 64.03125 73.074219 64.292969 71.808594 64.292969 C 69.351562 64.292969 67.890625 62.679688 67.890625 60.273438 C 67.890625 57.863281 69.304688 55.972656 71.628906 55.972656 C 74.230469 55.972656 74.925781 58.265625 74.925781 59.730469 C 74.925781 60.023438 74.890625 60.257812 74.875 60.402344 L 69.273438 60.402344 Z M 73.519531 59.371094 C 73.535156 58.449219 73.140625 57.015625 71.511719 57.015625 C 70.042969 57.015625 69.402344 58.367188 69.285156 59.371094 Z M 73.519531 59.371094 " fill-opacity="1" fill-rule="nonzero"/><path fill="#f5f6f3" d="M 81.128906 64.128906 L 81.011719 63.125 L 80.964844 63.125 C 80.519531 63.75 79.660156 64.3125 78.527344 64.3125 C 76.914062 64.3125 76.089844 63.171875 76.089844 62.019531 C 76.089844 60.09375 77.804688 59.039062 80.882812 59.054688 L 80.882812 58.890625 C 80.882812 58.230469 80.703125 57.042969 79.070312 57.042969 C 78.328125 57.042969 77.554688 57.277344 76.996094 57.636719 L 76.667969 56.679688 C 77.324219 56.253906 78.28125 55.972656 79.285156 55.972656 C 81.722656 55.972656 82.320312 57.636719 82.320312 59.234375 L 82.320312 62.214844 C 82.320312 62.90625 82.351562 63.582031 82.449219 64.125 L 81.132812 64.125 Z M 80.914062 60.058594 C 79.335938 60.023438 77.539062 60.304688 77.539062 61.855469 C 77.539062 62.796875 78.164062 63.242188 78.90625 63.242188 C 79.941406 63.242188 80.601562 62.582031 80.832031 61.90625 C 80.882812 61.757812 80.914062 61.59375 80.914062 61.445312 Z M 80.914062 60.058594 " fill-opacity="1" fill-rule="nonzero"/><path fill="#f5f6f3" d="M 84.65625 52.429688 L 86.105469 52.429688 L 86.105469 64.128906 L 84.65625 64.128906 Z M 84.65625 52.429688 " fill-opacity="1" fill-rule="nonzero"/><path fill="#f5f6f3" d="M 90.292969 53.867188 L 90.292969 56.15625 L 92.367188 56.15625 L 92.367188 57.261719 L 90.292969 57.261719 L 90.292969 61.558594 C 90.292969 62.546875 90.570312 63.109375 91.378906 63.109375 C 91.753906 63.109375 92.035156 63.0625 92.214844 63.011719 L 92.285156 64.097656 C 92.003906 64.214844 91.558594 64.296875 91 64.296875 C 90.324219 64.296875 89.777344 64.082031 89.433594 63.6875 C 89.023438 63.257812 88.871094 62.546875 88.871094 61.613281 L 88.871094 57.261719 L 87.636719 57.261719 L 87.636719 56.15625 L 88.871094 56.15625 L 88.871094 54.246094 L 90.289062 53.867188 Z M 90.292969 53.867188 " fill-opacity="1" fill-rule="nonzero"/><path fill="#f5f6f3" d="M 93.996094 52.429688 L 95.445312 52.429688 L 95.445312 57.40625 L 95.480469 57.40625 C 95.710938 56.996094 96.074219 56.632812 96.519531 56.386719 C 96.945312 56.136719 97.457031 55.972656 98 55.972656 C 99.070312 55.972656 100.785156 56.632812 100.785156 59.382812 L 100.785156 64.128906 L 99.335938 64.128906 L 99.335938 59.550781 C 99.335938 58.265625 98.859375 57.175781 97.492188 57.175781 C 96.550781 57.175781 95.808594 57.835938 95.546875 58.625 C 95.464844 58.824219 95.449219 59.035156 95.449219 59.316406 L 95.449219 64.128906 L 94 64.128906 L 94 52.429688 Z M 93.996094 52.429688 " fill-opacity="1" fill-rule="nonzero"/><path fill="#f5f6f3" d="M 106.683594 53.027344 L 108.117188 53.027344 L 108.117188 64.132812 L 106.683594 64.132812 Z M 106.683594 53.027344 " fill-opacity="1" fill-rule="nonzero"/><path fill="#f5f6f3" d="M 110.734375 58.3125 C 110.734375 57.488281 110.71875 56.816406 110.667969 56.15625 L 111.953125 56.15625 L 112.035156 57.476562 L 112.066406 57.476562 C 112.464844 56.71875 113.386719 55.976562 114.703125 55.976562 C 115.808594 55.976562 117.519531 56.636719 117.519531 59.371094 L 117.519531 64.132812 L 116.070312 64.132812 L 116.070312 59.535156 C 116.070312 58.25 115.589844 57.179688 114.226562 57.179688 C 113.269531 57.179688 112.527344 57.851562 112.28125 58.660156 C 112.214844 58.839844 112.183594 59.089844 112.183594 59.335938 L 112.183594 64.128906 L 110.734375 64.128906 Z M 110.734375 58.3125 " fill-opacity="1" fill-rule="nonzero"/><path fill="#f5f6f3" d="M 120.027344 64.128906 L 120.027344 57.257812 L 118.90625 57.257812 L 118.90625 56.152344 L 120.027344 56.152344 L 120.027344 55.773438 C 120.027344 54.65625 120.273438 53.632812 120.949219 52.988281 C 121.492188 52.460938 122.21875 52.25 122.890625 52.25 C 123.402344 52.25 123.847656 52.363281 124.128906 52.480469 L 123.929688 53.601562 C 123.714844 53.503906 123.421875 53.421875 123.007812 53.421875 C 121.773438 53.421875 121.457031 54.507812 121.457031 55.726562 L 121.457031 56.152344 L 123.386719 56.152344 L 123.386719 57.257812 L 121.457031 57.257812 L 121.457031 64.128906 L 120.023438 64.128906 Z M 120.027344 64.128906 " fill-opacity="1" fill-rule="nonzero"/><path fill="#f5f6f3" d="M 131.691406 60.078125 C 131.691406 63.027344 129.648438 64.3125 127.722656 64.3125 C 125.566406 64.3125 123.898438 62.730469 123.898438 60.207031 C 123.898438 57.539062 125.644531 55.972656 127.851562 55.972656 C 130.0625 55.972656 131.691406 57.636719 131.691406 60.078125 Z M 125.363281 60.160156 C 125.363281 61.90625 126.367188 63.222656 127.785156 63.222656 C 129.203125 63.222656 130.207031 61.917969 130.207031 60.125 C 130.207031 58.773438 129.535156 57.0625 127.820312 57.0625 C 126.105469 57.0625 125.363281 58.644531 125.363281 60.160156 Z M 125.363281 60.160156 " fill-opacity="1" fill-rule="nonzero"/><path fill="#f5f6f3" d="M 133.519531 58.644531 C 133.519531 57.703125 133.503906 56.898438 133.453125 56.15625 L 134.71875 56.15625 L 134.769531 57.722656 L 134.835938 57.722656 C 135.199219 56.652344 136.070312 55.976562 137.046875 55.976562 C 137.210938 55.976562 137.324219 55.992188 137.457031 56.027344 L 137.457031 57.390625 C 137.308594 57.359375 137.160156 57.34375 136.960938 57.34375 C 135.941406 57.34375 135.21875 58.117188 135.019531 59.203125 C 134.984375 59.402344 134.953125 59.632812 134.953125 59.878906 L 134.953125 64.128906 L 133.519531 64.128906 Z M 133.519531 58.644531 " fill-opacity="1" fill-rule="nonzero"/><path fill="#f5f6f3" d="M 138.972656 58.3125 C 138.972656 57.488281 138.957031 56.816406 138.90625 56.15625 L 140.175781 56.15625 L 140.242188 57.441406 L 140.292969 57.441406 C 140.738281 56.683594 141.476562 55.972656 142.796875 55.972656 C 143.882812 55.972656 144.707031 56.632812 145.054688 57.574219 L 145.085938 57.574219 C 145.335938 57.125 145.648438 56.78125 145.976562 56.535156 C 146.457031 56.171875 146.980469 55.972656 147.742188 55.972656 C 148.796875 55.972656 150.363281 56.667969 150.363281 59.433594 L 150.363281 64.128906 L 148.945312 64.128906 L 148.945312 59.613281 C 148.945312 58.082031 148.386719 57.15625 147.214844 57.15625 C 146.394531 57.15625 145.75 57.765625 145.503906 58.476562 C 145.433594 58.671875 145.386719 58.9375 145.386719 59.203125 L 145.386719 64.128906 L 143.96875 64.128906 L 143.96875 59.351562 C 143.96875 58.082031 143.410156 57.160156 142.308594 57.160156 C 141.402344 57.160156 140.742188 57.886719 140.511719 58.609375 C 140.429688 58.824219 140.394531 59.070312 140.394531 59.316406 L 140.394531 64.128906 L 138.980469 64.128906 L 138.980469 58.3125 Z M 138.972656 58.3125 " fill-opacity="1" fill-rule="nonzero"/><path fill="#f5f6f3" d="M 157.125 64.128906 L 157.011719 63.125 L 156.960938 63.125 C 156.515625 63.75 155.660156 64.3125 154.523438 64.3125 C 152.910156 64.3125 152.085938 63.171875 152.085938 62.019531 C 152.085938 60.09375 153.800781 59.039062 156.878906 59.054688 L 156.878906 58.890625 C 156.878906 58.230469 156.699219 57.042969 155.066406 57.042969 C 154.324219 57.042969 153.550781 57.277344 152.992188 57.636719 L 152.664062 56.679688 C 153.320312 56.253906 154.277344 55.972656 155.28125 55.972656 C 157.722656 55.972656 158.316406 57.636719 158.316406 59.234375 L 158.316406 62.214844 C 158.316406 62.90625 158.347656 63.582031 158.445312 64.125 L 157.128906 64.125 Z M 156.914062 60.058594 C 155.332031 60.023438 153.535156 60.304688 153.535156 61.855469 C 153.535156 62.796875 154.160156 63.242188 154.902344 63.242188 C 155.9375 63.242188 156.597656 62.582031 156.828125 61.90625 C 156.878906 61.757812 156.914062 61.59375 156.914062 61.445312 Z M 156.914062 60.058594 " fill-opacity="1" fill-rule="nonzero"/><path fill="#f5f6f3" d="M 162.332031 53.867188 L 162.332031 56.15625 L 164.40625 56.15625 L 164.40625 57.261719 L 162.332031 57.261719 L 162.332031 61.558594 C 162.332031 62.546875 162.613281 63.109375 163.417969 63.109375 C 163.796875 63.109375 164.078125 63.0625 164.257812 63.011719 L 164.324219 64.097656 C 164.046875 64.214844 163.601562 64.296875 163.042969 64.296875 C 162.367188 64.296875 161.820312 64.082031 161.476562 63.6875 C 161.0625 63.257812 160.914062 62.546875 160.914062 61.613281 L 160.914062 57.261719 L 159.679688 57.261719 L 159.679688 56.15625 L 160.914062 56.15625 L 160.914062 54.246094 Z M 162.332031 53.867188 " fill-opacity="1" fill-rule="nonzero"/><path fill="#f5f6f3" d="M 167.652344 53.914062 C 167.667969 54.410156 167.308594 54.804688 166.734375 54.804688 C 166.222656 54.804688 165.859375 54.410156 165.859375 53.914062 C 165.859375 53.421875 166.238281 53.007812 166.765625 53.007812 C 167.292969 53.007812 167.65625 53.40625 167.65625 53.914062 Z M 166.039062 64.128906 L 166.039062 56.152344 L 167.488281 56.152344 L 167.488281 64.128906 Z M 166.039062 64.128906 " fill-opacity="1" fill-rule="nonzero"/><path fill="#f5f6f3" d="M 175.578125 63.832031 C 175.199219 64.03125 174.355469 64.292969 173.285156 64.292969 C 170.882812 64.292969 169.316406 62.660156 169.316406 60.222656 C 169.316406 57.785156 170.996094 55.988281 173.601562 55.988281 C 174.457031 55.988281 175.214844 56.203125 175.609375 56.402344 L 175.28125 57.519531 C 174.9375 57.320312 174.390625 57.140625 173.601562 57.140625 C 171.773438 57.140625 170.785156 58.492188 170.785156 60.15625 C 170.785156 62.003906 171.972656 63.136719 173.550781 63.136719 C 174.375 63.136719 174.917969 62.921875 175.332031 62.742188 L 175.578125 63.828125 Z M 175.578125 63.832031 " fill-opacity="1" fill-rule="nonzero"/><path fill="#f5f6f3" d="M 177.078125 62.644531 C 177.503906 62.925781 178.265625 63.222656 178.988281 63.222656 C 180.042969 63.222656 180.539062 62.695312 180.539062 62.035156 C 180.539062 61.34375 180.125 60.964844 179.054688 60.566406 C 177.621094 60.058594 176.945312 59.265625 176.945312 58.3125 C 176.945312 57.027344 177.984375 55.96875 179.699219 55.96875 C 180.507812 55.96875 181.214844 56.203125 181.660156 56.464844 L 181.296875 57.519531 C 180.984375 57.320312 180.40625 57.058594 179.664062 57.058594 C 178.808594 57.058594 178.332031 57.554688 178.332031 58.144531 C 178.332031 58.804688 178.8125 59.101562 179.847656 59.496094 C 181.234375 60.023438 181.941406 60.71875 181.941406 61.902344 C 181.941406 63.300781 180.855469 64.289062 178.960938 64.289062 C 178.089844 64.289062 177.28125 64.078125 176.722656 63.746094 L 177.085938 62.644531 Z M 177.078125 62.644531 " fill-opacity="1" fill-rule="nonzero"/><path fill="#f5f6f3" d="M 187.339844 53.027344 L 188.773438 53.027344 L 188.773438 64.132812 L 187.339844 64.132812 Z M 187.339844 53.027344 " fill-opacity="1" fill-rule="nonzero"/><path fill="#f5f6f3" d="M 191.394531 58.3125 C 191.394531 57.488281 191.378906 56.816406 191.324219 56.15625 L 192.609375 56.15625 L 192.691406 57.476562 L 192.726562 57.476562 C 193.121094 56.71875 194.042969 55.976562 195.363281 55.976562 C 196.464844 55.976562 198.179688 56.636719 198.179688 59.371094 L 198.179688 64.132812 L 196.730469 64.132812 L 196.730469 59.535156 C 196.730469 58.25 196.25 57.179688 194.882812 57.179688 C 193.929688 57.179688 193.1875 57.851562 192.941406 58.660156 C 192.871094 58.839844 192.84375 59.089844 192.84375 59.335938 L 192.84375 64.128906 L 191.394531 64.128906 Z M 191.394531 58.3125 " fill-opacity="1" fill-rule="nonzero"/><path fill="#f5f6f3" d="M 200.6875 64.128906 L 200.6875 57.257812 L 199.566406 57.257812 L 199.566406 56.152344 L 200.6875 56.152344 L 200.6875 55.773438 C 200.6875 54.65625 200.933594 53.632812 201.605469 52.988281 C 202.148438 52.460938 202.875 52.25 203.550781 52.25 C 204.058594 52.25 204.503906 52.363281 204.785156 52.480469 L 204.585938 53.601562 C 204.375 53.503906 204.078125 53.421875 203.667969 53.421875 C 202.429688 53.421875 202.117188 54.507812 202.117188 55.726562 L 202.117188 56.152344 L 204.042969 56.152344 L 204.042969 57.257812 L 202.117188 57.257812 L 202.117188 64.128906 L 200.683594 64.128906 Z M 200.6875 64.128906 " fill-opacity="1" fill-rule="nonzero"/><path fill="#f5f6f3" d="M 205.347656 58.644531 C 205.347656 57.703125 205.332031 56.898438 205.28125 56.15625 L 206.550781 56.15625 L 206.597656 57.722656 L 206.664062 57.722656 C 207.027344 56.652344 207.902344 55.976562 208.875 55.976562 C 209.039062 55.976562 209.15625 55.992188 209.285156 56.027344 L 209.285156 57.390625 C 209.136719 57.359375 208.988281 57.34375 208.792969 57.34375 C 207.769531 57.34375 207.046875 58.117188 206.847656 59.203125 C 206.816406 59.402344 206.78125 59.632812 206.78125 59.878906 L 206.78125 64.128906 L 205.347656 64.128906 Z M 205.347656 58.644531 " fill-opacity="1" fill-rule="nonzero"/><path fill="#f5f6f3" d="M 215.066406 64.128906 L 214.953125 63.125 L 214.902344 63.125 C 214.457031 63.75 213.601562 64.3125 212.464844 64.3125 C 210.851562 64.3125 210.027344 63.171875 210.027344 62.019531 C 210.027344 60.09375 211.742188 59.039062 214.820312 59.054688 L 214.820312 58.890625 C 214.820312 58.230469 214.640625 57.042969 213.007812 57.042969 C 212.265625 57.042969 211.492188 57.277344 210.933594 57.636719 L 210.605469 56.679688 C 211.261719 56.253906 212.21875 55.972656 213.222656 55.972656 C 215.664062 55.972656 216.257812 57.636719 216.257812 59.234375 L 216.257812 62.214844 C 216.257812 62.90625 216.289062 63.582031 216.386719 64.125 L 215.070312 64.125 Z M 214.855469 60.058594 C 213.273438 60.023438 211.476562 60.304688 211.476562 61.855469 C 211.476562 62.796875 212.101562 63.242188 212.84375 63.242188 C 213.878906 63.242188 214.539062 62.582031 214.769531 61.90625 C 214.820312 61.757812 214.855469 61.59375 214.855469 61.445312 Z M 214.855469 60.058594 " fill-opacity="1" fill-rule="nonzero"/><path fill="#f5f6f3" d="M 218.394531 62.644531 C 218.824219 62.925781 219.582031 63.222656 220.304688 63.222656 C 221.359375 63.222656 221.855469 62.695312 221.855469 62.035156 C 221.855469 61.34375 221.445312 60.964844 220.371094 60.566406 C 218.9375 60.058594 218.265625 59.265625 218.265625 58.3125 C 218.265625 57.027344 219.300781 55.96875 221.015625 55.96875 C 221.824219 55.96875 222.53125 56.203125 222.976562 56.464844 L 222.613281 57.519531 C 222.300781 57.320312 221.722656 57.058594 220.984375 57.058594 C 220.125 57.058594 219.648438 57.554688 219.648438 58.144531 C 219.648438 58.804688 220.128906 59.101562 221.164062 59.496094 C 222.550781 60.023438 223.257812 60.71875 223.257812 61.902344 C 223.257812 63.300781 222.171875 64.289062 220.277344 64.289062 C 219.40625 64.289062 218.597656 64.078125 218.039062 63.746094 L 218.402344 62.644531 Z M 218.394531 62.644531 " fill-opacity="1" fill-rule="nonzero"/><path fill="#f5f6f3" d="M 226.863281 53.867188 L 226.863281 56.15625 L 228.9375 56.15625 L 228.9375 57.261719 L 226.863281 57.261719 L 226.863281 61.558594 C 226.863281 62.546875 227.140625 63.109375 227.949219 63.109375 C 228.324219 63.109375 228.605469 63.0625 228.785156 63.011719 L 228.855469 64.097656 C 228.574219 64.214844 228.128906 64.296875 227.570312 64.296875 C 226.894531 64.296875 226.347656 64.082031 226.003906 63.6875 C 225.59375 63.257812 225.441406 62.546875 225.441406 61.613281 L 225.441406 57.261719 L 224.207031 57.261719 L 224.207031 56.15625 L 225.441406 56.15625 L 225.441406 54.246094 L 226.859375 53.867188 Z M 226.863281 53.867188 " fill-opacity="1" fill-rule="nonzero"/><path fill="#f5f6f3" d="M 230.570312 58.644531 C 230.570312 57.703125 230.554688 56.898438 230.5 56.15625 L 231.769531 56.15625 L 231.820312 57.722656 L 231.886719 57.722656 C 232.25 56.652344 233.121094 55.976562 234.09375 55.976562 C 234.261719 55.976562 234.375 55.992188 234.507812 56.027344 L 234.507812 57.390625 C 234.359375 57.359375 234.210938 57.34375 234.011719 57.34375 C 232.992188 57.34375 232.269531 58.117188 232.070312 59.203125 C 232.035156 59.402344 232.003906 59.632812 232.003906 59.878906 L 232.003906 64.128906 L 230.570312 64.128906 Z M 230.570312 58.644531 " fill-opacity="1" fill-rule="nonzero"/><path fill="#f5f6f3" d="M 242.628906 61.953125 C 242.628906 62.777344 242.644531 63.503906 242.695312 64.128906 L 241.410156 64.128906 L 241.328125 62.824219 L 241.296875 62.824219 C 240.917969 63.46875 240.074219 64.308594 238.660156 64.308594 C 237.410156 64.308594 235.90625 63.617188 235.90625 60.816406 L 235.90625 56.152344 L 237.355469 56.152344 L 237.355469 60.566406 C 237.355469 62.085938 237.816406 63.105469 239.136719 63.105469 C 240.109375 63.105469 240.78125 62.433594 241.046875 61.789062 C 241.128906 61.574219 241.175781 61.308594 241.175781 61.046875 L 241.175781 56.152344 L 242.625 56.152344 L 242.625 61.953125 Z M 242.628906 61.953125 " fill-opacity="1" fill-rule="nonzero"/><path fill="#f5f6f3" d="M 250.714844 63.832031 C 250.339844 64.03125 249.496094 64.292969 248.425781 64.292969 C 246.019531 64.292969 244.457031 62.660156 244.457031 60.222656 C 244.457031 57.785156 246.136719 55.988281 248.738281 55.988281 C 249.597656 55.988281 250.351562 56.203125 250.75 56.402344 L 250.421875 57.519531 C 250.074219 57.320312 249.53125 57.140625 248.738281 57.140625 C 246.910156 57.140625 245.921875 58.492188 245.921875 60.15625 C 245.921875 62.003906 247.109375 63.136719 248.691406 63.136719 C 249.515625 63.136719 250.058594 62.921875 250.46875 62.742188 L 250.714844 63.828125 Z M 250.714844 63.832031 " fill-opacity="1" fill-rule="nonzero"/><path fill="#f5f6f3" d="M 254.375 53.867188 L 254.375 56.15625 L 256.449219 56.15625 L 256.449219 57.261719 L 254.375 57.261719 L 254.375 61.558594 C 254.375 62.546875 254.65625 63.109375 255.460938 63.109375 C 255.839844 63.109375 256.121094 63.0625 256.300781 63.011719 L 256.367188 64.097656 C 256.085938 64.214844 255.640625 64.296875 255.082031 64.296875 C 254.40625 64.296875 253.863281 64.082031 253.515625 63.6875 C 253.105469 63.257812 252.957031 62.546875 252.957031 61.613281 L 252.957031 57.261719 L 251.71875 57.261719 L 251.71875 56.15625 L 252.957031 56.15625 L 252.957031 54.246094 L 254.371094 53.867188 Z M 254.375 53.867188 " fill-opacity="1" fill-rule="nonzero"/><path fill="#f5f6f3" d="M 264.753906 61.953125 C 264.753906 62.777344 264.769531 63.503906 264.820312 64.128906 L 263.535156 64.128906 L 263.453125 62.824219 L 263.417969 62.824219 C 263.042969 63.46875 262.199219 64.308594 260.785156 64.308594 C 259.53125 64.308594 258.03125 63.617188 258.03125 60.816406 L 258.03125 56.152344 L 259.480469 56.152344 L 259.480469 60.566406 C 259.480469 62.085938 259.941406 63.105469 261.261719 63.105469 C 262.234375 63.105469 262.90625 62.433594 263.167969 61.789062 C 263.253906 61.574219 263.300781 61.308594 263.300781 61.046875 L 263.300781 56.152344 L 264.75 56.152344 L 264.75 61.953125 Z M 264.753906 61.953125 " fill-opacity="1" fill-rule="nonzero"/><path fill="#f5f6f3" d="M 267.160156 58.644531 C 267.160156 57.703125 267.144531 56.898438 267.09375 56.15625 L 268.363281 56.15625 L 268.410156 57.722656 L 268.476562 57.722656 C 268.839844 56.652344 269.714844 55.976562 270.6875 55.976562 C 270.851562 55.976562 270.96875 55.992188 271.097656 56.027344 L 271.097656 57.390625 C 270.949219 57.359375 270.804688 57.34375 270.605469 57.34375 C 269.582031 57.34375 268.859375 58.117188 268.660156 59.203125 C 268.628906 59.402344 268.59375 59.632812 268.59375 59.878906 L 268.59375 64.128906 L 267.160156 64.128906 Z M 267.160156 58.644531 " fill-opacity="1" fill-rule="nonzero"/><path fill="#f5f6f3" d="M 273.1875 60.40625 C 273.222656 62.367188 274.472656 63.171875 275.921875 63.171875 C 276.960938 63.171875 277.585938 62.992188 278.132812 62.761719 L 278.378906 63.800781 C 277.867188 64.03125 276.992188 64.292969 275.726562 64.292969 C 273.269531 64.292969 271.808594 62.679688 271.808594 60.273438 C 271.808594 57.863281 273.222656 55.972656 275.546875 55.972656 C 278.148438 55.972656 278.84375 58.265625 278.84375 59.730469 C 278.84375 60.023438 278.808594 60.257812 278.792969 60.402344 L 273.191406 60.402344 Z M 277.4375 59.371094 C 277.453125 58.449219 277.058594 57.015625 275.429688 57.015625 C 273.960938 57.015625 273.320312 58.367188 273.203125 59.371094 Z M 277.4375 59.371094 " fill-opacity="1" fill-rule="nonzero"/><path fill="#ed1c24" d="M 15.136719 52.210938 C 15.136719 53.480469 14.109375 54.511719 12.832031 54.511719 C 11.558594 54.511719 10.53125 53.480469 10.53125 52.210938 C 10.53125 50.941406 11.5625 49.910156 12.832031 49.910156 C 14.105469 49.910156 15.136719 50.941406 15.136719 52.210938 Z M 15.136719 52.210938 " fill-opacity="1" fill-rule="nonzero"/><path fill="#af006e" d="M 48.476562 62.128906 C 48.476562 63.398438 47.441406 64.429688 46.171875 64.429688 C 44.902344 64.429688 43.871094 63.394531 43.871094 62.128906 C 43.871094 60.859375 44.902344 59.828125 46.171875 59.828125 C 47.445312 59.828125 48.476562 60.855469 48.476562 62.128906 Z M 48.476562 62.128906 " fill-opacity="1" fill-rule="nonzero"/><path fill="#006838" d="M 10.15625 54.78125 L 10.15625 57.78125 C 9.699219 57.800781 8.554688 57.652344 7.9375 58.207031 C 7.089844 58.972656 7.203125 60.261719 7.203125 61.1875 L 7.203125 64.332031 L 3.777344 64.332031 L 3.777344 55.1875 L 7.023438 55.1875 L 7.023438 56.199219 C 7.902344 55.058594 9.027344 54.648438 10.15625 54.777344 Z M 10.15625 54.78125 " fill-opacity="1" fill-rule="nonzero"/><path fill="#006838" d="M 11.082031 55.191406 L 14.585938 55.191406 L 14.585938 64.339844 L 11.082031 64.339844 Z M 11.082031 55.191406 " fill-opacity="1" fill-rule="nonzero"/><path fill="#006838" d="M 22.574219 55.957031 L 22.574219 55.175781 L 25.996094 55.175781 L 25.996094 63.179688 C 25.996094 64.695312 25.984375 66.226562 24.074219 67.417969 C 22.507812 68.429688 19.785156 68.410156 18.21875 67.675781 C 16.996094 67.105469 16.261719 66.210938 16.082031 64.859375 L 19.375 64.859375 C 19.617188 65.460938 19.832031 65.722656 20.453125 65.835938 C 20.910156 65.917969 21.640625 65.867188 22.082031 65.410156 C 22.523438 64.957031 22.488281 64.140625 22.488281 63.519531 C 21.183594 64.46875 19.617188 64.792969 18.28125 64.304688 C 16.667969 63.730469 16.046875 62.460938 15.757812 61.207031 C 15.414062 59.820312 15.496094 57.699219 16.882812 56.167969 C 17.972656 54.980469 19.472656 54.847656 20.679688 55.007812 C 21.203125 55.078125 21.933594 55.402344 22.570312 55.957031 Z M 19.101562 59.230469 C 19.003906 59.886719 19.117188 60.847656 19.785156 61.402344 C 20.289062 61.839844 21.039062 61.839844 21.449219 61.695312 C 22.148438 61.433594 22.472656 60.761719 22.589844 60.128906 C 22.738281 59.496094 22.652344 58.5625 22.050781 58.027344 C 21.496094 57.519531 20.84375 57.519531 20.386719 57.632812 C 19.636719 57.832031 19.214844 58.480469 19.101562 59.230469 Z M 19.101562 59.230469 " fill-opacity="1" fill-rule="nonzero"/><path fill="#006838" d="M 31.152344 52.683594 L 31.152344 55.796875 C 31.707031 55.40625 32.015625 55.144531 32.796875 54.902344 C 33.710938 54.621094 34.984375 54.738281 35.847656 55.371094 C 37.085938 56.304688 37.210938 58.015625 37.179688 58.976562 L 37.179688 64.339844 L 33.660156 64.339844 L 33.660156 60.183594 C 33.660156 59.273438 33.722656 58.390625 33.039062 58 C 32.683594 57.789062 32.109375 57.753906 31.785156 57.949219 C 31.070312 58.421875 31.132812 59.285156 31.132812 60.296875 L 31.132812 64.339844 L 27.644531 64.339844 L 27.644531 52.683594 Z M 31.152344 52.683594 " fill-opacity="1" fill-rule="nonzero"/><path fill="#006838" d="M 25.984375 48.476562 L 19.296875 48.476562 C 19.316406 49.15625 19.757812 49.78125 20.472656 49.941406 C 21.078125 50.089844 21.792969 49.992188 22.398438 49.289062 L 25.835938 49.289062 C 25.246094 51.148438 24.109375 52.027344 22.511719 52.355469 C 20.914062 52.710938 18.613281 52.582031 17.148438 51 C 15.925781 49.679688 15.5 47.675781 15.992188 45.949219 C 16.480469 44.316406 17.605469 43.242188 19.367188 42.789062 C 20.636719 42.460938 23.128906 42.609375 24.515625 43.976562 C 25.753906 45.1875 26.066406 47.320312 25.984375 48.476562 Z M 22.136719 45.460938 C 21.691406 45.019531 21.09375 44.871094 20.621094 44.953125 C 19.984375 45.085938 19.574219 45.492188 19.316406 46.242188 L 22.527344 46.242188 C 22.527344 46.242188 22.429688 45.769531 22.136719 45.460938 Z M 22.136719 45.460938 " fill-opacity="1" fill-rule="nonzero"/><path fill="#006838" d="M 33.789062 43.8125 L 33.789062 43.082031 L 37.261719 43.082031 L 37.261719 52.222656 L 33.722656 52.222656 L 33.722656 51.359375 C 32.566406 52.417969 31.179688 52.742188 29.875 52.355469 C 28.210938 51.882812 27.332031 50.839844 26.828125 49.175781 C 26.453125 47.855469 26.535156 45.457031 27.808594 44.007812 C 28.832031 42.800781 30.300781 42.523438 31.445312 42.707031 C 32.433594 42.847656 32.90625 43.046875 33.789062 43.8125 Z M 30.171875 47.609375 C 30.203125 48.363281 30.511719 49.046875 31.214844 49.46875 C 31.734375 49.746094 32.40625 49.714844 32.863281 49.46875 C 33.59375 49.046875 33.855469 48.199219 33.871094 47.609375 C 33.902344 46.925781 33.707031 46.207031 33.007812 45.753906 C 32.519531 45.425781 31.804688 45.363281 31.328125 45.589844 C 30.464844 45.980469 30.140625 46.898438 30.175781 47.609375 Z M 30.171875 47.609375 " fill-opacity="1" fill-rule="nonzero"/><path fill="#006838" d="M 39.058594 52.488281 L 39.054688 52.488281 L 39.054688 55.191406 L 37.699219 55.191406 L 37.699219 57.816406 L 39.054688 57.816406 L 39.054688 64.335938 L 42.625 64.335938 L 42.625 57.816406 L 43.960938 57.816406 L 43.960938 55.191406 L 42.625 55.191406 L 42.625 52.488281 Z M 39.058594 52.488281 " fill-opacity="1" fill-rule="nonzero"/><path fill="#006838" d="M 42.625 52.222656 L 42.625 45.703125 L 43.960938 45.703125 L 43.960938 43.078125 L 42.625 43.078125 L 42.625 40.371094 L 39.054688 40.371094 L 39.054688 43.078125 L 37.699219 43.078125 L 37.699219 45.703125 L 39.054688 45.703125 L 39.054688 52.222656 Z M 42.625 52.222656 " fill-opacity="1" fill-rule="nonzero"/><path fill="#006838" d="M 47.796875 41.925781 C 47.796875 42.816406 47.074219 43.542969 46.183594 43.542969 C 45.292969 43.542969 44.570312 42.816406 44.570312 41.925781 C 44.570312 41.039062 45.292969 40.3125 46.183594 40.3125 C 47.074219 40.3125 47.796875 41.039062 47.796875 41.925781 Z M 47.535156 41.925781 C 47.535156 41.148438 46.953125 40.535156 46.183594 40.535156 C 45.410156 40.535156 44.832031 41.148438 44.832031 41.925781 C 44.832031 42.707031 45.410156 43.324219 46.183594 43.324219 C 46.953125 43.324219 47.535156 42.707031 47.535156 41.925781 Z M 45.84375 42.886719 L 45.582031 42.886719 L 45.582031 40.96875 L 46.316406 40.96875 C 46.746094 40.96875 46.9375 41.15625 46.9375 41.5 C 46.9375 41.84375 46.714844 41.988281 46.496094 42.035156 L 47.03125 42.886719 L 46.734375 42.886719 L 46.210938 42.035156 L 45.84375 42.035156 Z M 46.144531 41.816406 C 46.394531 41.816406 46.675781 41.828125 46.675781 41.496094 C 46.675781 41.230469 46.460938 41.1875 46.257812 41.1875 L 45.839844 41.1875 L 45.839844 41.820312 L 46.140625 41.820312 Z M 46.144531 41.816406 " fill-opacity="1" fill-rule="nonzero"/></svg>