<?xml version="1.0" encoding="utf-8"?>
<!-- Generator: Adobe Illustrator 21.1.0, SVG Export Plug-In . SVG Version: 6.00 Build 0)  -->
<svg version="1.1" id="Capa_1" xmlns="http://www.w3.org/2000/svg" xmlns:xlink="http://www.w3.org/1999/xlink" x="0px" y="0px"
	 viewBox="0 0 512 512" style="enable-background:new 0 0 512 512;" xml:space="preserve">
<style type="text/css">
	.st0{fill:#207A50;}
</style>
<g>
	<g>
		<path class="st0" d="M499.2,170.7L341.3,12.8c-17.1-17.1-44.9-17.1-62,0L32.8,259.3c-8.5,8.5-12.8,19.8-12.8,31s4.3,22.5,12.8,31
			l39.6,39.6L29,404.4c-2,2-2.9,4.5-2.9,7.1s1,5.1,2.9,7.1c3.9,3.9,10.2,3.9,14.1,0L86.6,375l18.1,18.1L2.9,494.9
			c-2,2-2.9,4.5-2.9,7.1s1,5.1,2.9,7.1c3.9,3.9,10.2,3.9,14.1,0l101.8-101.8l71.9,71.9c17.1,17.1,44.9,17.1,62,0l246.4-246.4
			c8.3-8.3,12.8-19.3,12.8-31C512,190,507.4,179,499.2,170.7z M214.5,470.8c-3.5-1.1-6.8-3-9.6-5.8L47,307.1
			c-6.2-6.2-8.3-15.1-6.1-23h173.6V470.8z M178.3,264.1l29.7-29.7c3.9-3.9,3.9-10.2,0-14.1s-10.2-3.9-14.1,0L150,264.1h-29.1
			l90.4-90.4c3.9-3.9,3.9-10.2,0-14.1c-3.9-3.9-10.2-3.9-14.1,0L92.6,264.1H56.3L284.1,36.3v203.9c0,13.1-10.7,23.8-23.8,23.8H178.3
			z M485,218.6L238.6,465c-1.3,1.3-2.7,2.4-4.1,3.3V284.1h25.8c24.2,0,43.8-19.7,43.8-43.8v-25.8h114.6l-57.9,57.9
			c-2,2-2.9,4.5-2.9,7.1c0,2.6,1,5.1,2.9,7.1c3.9,3.9,10.2,3.9,14.1,0l72-72c0,0,0,0,0,0h41.3C487.4,215.9,486.3,217.3,485,218.6z
			 M304.1,194.5V20.8c8-2.1,16.8-0.1,23,6.1L485,184.9c2.7,2.7,4.7,6,5.9,9.6H304.1z"/>
	</g>
</g>
<g>
	<g>
		<path class="st0" d="M235.8,135.1c-1.9-1.9-4.4-2.9-7.1-2.9c-2.6,0-5.2,1.1-7.1,2.9c-1.9,1.9-2.9,4.4-2.9,7.1
			c0,2.6,1.1,5.2,2.9,7.1c1.9,1.9,4.4,2.9,7.1,2.9c2.6,0,5.2-1.1,7.1-2.9s2.9-4.4,2.9-7.1C238.7,139.5,237.6,136.9,235.8,135.1z"/>
	</g>
</g>
<g>
	<g>
		<path class="st0" d="M17.1,430.4c-1.9-1.9-4.4-2.9-7.1-2.9s-5.2,1.1-7.1,2.9S0,434.8,0,437.4s1.1,5.2,2.9,7.1
			c1.9,1.9,4.4,2.9,7.1,2.9c2.6,0,5.2-1.1,7.1-2.9c1.9-1.9,2.9-4.4,2.9-7.1S19,432.2,17.1,430.4z"/>
	</g>
</g>
<g>
	<g>
		<path class="st0" d="M127,449.5c-3.9-3.9-10.2-3.9-14.1,0l-45.4,45.4c-2,2-2.9,4.5-2.9,7.1c0,2.6,1,5.1,2.9,7.1
			c3.9,3.9,10.2,3.9,14.1,0l45.4-45.4C130.9,459.7,130.9,453.4,127,449.5z"/>
	</g>
</g>
</svg>
