<?xml version="1.0" encoding="utf-8"?>
<!-- Generator: Adobe Illustrator 21.1.0, SVG Export Plug-In . SVG Version: 6.00 Build 0)  -->
<svg version="1.1" id="Layer_1" xmlns="http://www.w3.org/2000/svg" xmlns:xlink="http://www.w3.org/1999/xlink" x="0px" y="0px"
	 viewBox="0 0 512 512" style="enable-background:new 0 0 512 512;" xml:space="preserve">
<style type="text/css">
	.st0{fill:#207A50;stroke:#207A50;stroke-miterlimit:10;}
</style>
<path class="st0" d="M464.4,66.9H338c-1.8-9.8-6.4-18.9-13.5-26.3c-9.8-10.3-23.1-15.9-37.3-15.9c-5.2,0-10.4,0.8-15.3,2.3
	C260.2,10.2,241,0,220,0c-34.9,0-63.2,28.4-63.2,63.2c0,1.2,0,2.5,0.1,3.7H47.6C21.4,66.9,0,88.3,0,114.5v273.4
	c0,26.3,21.4,47.6,47.6,47.6h150.8l-5.7,19.4h-28.8c-15.7,0-28.5,12.8-28.5,28.5c0,15.7,12.8,28.5,28.5,28.5h184.2
	c15.7,0,28.5-12.8,28.5-28.5c0-15.7-12.8-28.5-28.5-28.5h-28.8l-5.7-19.4h150.8c26.3,0,47.6-21.4,47.6-47.6V114.5
	C512,88.3,490.6,66.9,464.4,66.9z M220,20c16.5,0,31.4,9.2,38.8,24.1c1.2,2.4,3.3,4.3,5.9,5.1c2.6,0.8,5.4,0.6,7.8-0.7
	c4.6-2.4,9.6-3.7,14.8-3.7c8.7,0,16.8,3.5,22.9,9.8c6,6.3,9.2,14.6,8.8,23.3c-0.1,2.8,0.9,5.5,2.9,7.5s4.7,3,7.4,2.9
	c0.6,0,1.3,0,1.9,0c26.5,0,48,21.5,48,48c0,26.4-21.5,47.9-48,47.9H191.3c-26.5,0-48-21.5-48-47.9c0-19.9,12-37.5,30.6-44.7
	c5.1-2,7.7-7.7,5.7-12.8c-1.9-4.9-2.8-10.1-2.8-15.4C176.8,39.4,196.2,20,220,20z M256.7,282.5c6.2,0,11.3,5.1,11.3,11.3
	c0,6.2-5.1,11.3-11.3,11.3c-6.2,0-11.3-5.1-11.3-11.3C245.4,287.6,250.5,282.5,256.7,282.5z M356.6,483.5c0,4.7-3.8,8.5-8.5,8.5
	H163.9c-4.7,0-8.5-3.8-8.5-8.5c0-4.7,3.8-8.5,8.5-8.5h184.2C352.8,475,356.6,478.8,356.6,483.5z M298.5,455h-85l5.7-19.4h73.5
	L298.5,455z M464.4,415.5H47.6c-15.2,0-27.6-12.4-27.6-27.6v-9.4h195.9c5.5,0,10-4.5,10-10s-4.5-10-10-10H20v-244
	c0-15.2,12.4-27.6,27.6-27.6h96.7c-13.2,12.5-21,30.1-21,49.2c0,37.5,30.5,67.9,68,67.9h6.6v37h-40.5c-3.3-13.7-15.7-24-30.4-24
	c-17.3,0-31.3,14-31.3,31.3c0,17.3,14,31.3,31.3,31.3c12.7,0,23.7-7.7,28.6-18.6h52.3c5.5,0,10-4.5,10-10v-47h28.9v60.2
	c-12.4,4.2-21.3,15.9-21.3,29.7c0,17.3,14,31.3,31.3,31.3c17.3,0,31.3-14,31.3-31.3c0-13.8-8.9-25.5-21.3-29.7V204h20.2v47
	c0,5.5,4.5,10,10,10h48.6c4.2,12.4,15.9,21.3,29.6,21.3c17.3,0,31.3-14,31.3-31.3c0-17.3-14-31.3-31.3-31.3
	c-13.8,0-25.5,8.9-29.6,21.3h-38.6v-37h24.3c37.5,0,68-30.5,68-67.9c0-19.3-8.1-36.8-21.1-49.2h86.4c15.2,0,27.7,12.4,27.7,27.6v244
	H295.7c-5.5,0-10,4.5-10,10s4.5,10,10,10H492v9.4C492,403.1,479.6,415.5,464.4,415.5z M138.3,248.3c0,6.2-5.1,11.3-11.3,11.3
	c-6.2,0-11.3-5.1-11.3-11.3c0-6.2,5.1-11.3,11.3-11.3C133.2,237,138.3,242.1,138.3,248.3z M363.8,251c0-6.2,5.1-11.3,11.3-11.3
	c6.2,0,11.3,5.1,11.3,11.3c0,6.2-5.1,11.3-11.3,11.3C368.9,262.3,363.8,257.2,363.8,251z"/>
<path class="st0" d="M256,358.5h-0.2c-5.5,0-10,4.5-10,10s4.5,10,10,10h0.2c5.5,0,10-4.5,10-10C266,363,261.5,358.5,256,358.5z"/>
</svg>
