<?xml version="1.0" encoding="utf-8"?>
<!-- Generator: Adobe Illustrator 21.1.0, SVG Export Plug-In . SVG Version: 6.00 Build 0)  -->
<svg version="1.1" id="Layer_1" xmlns="http://www.w3.org/2000/svg" xmlns:xlink="http://www.w3.org/1999/xlink" x="0px" y="0px"
	 viewBox="0 0 120 120" style="enable-background:new 0 0 120 120;" xml:space="preserve">
<style type="text/css">
	.st0{fill:#207A50;}
</style>
<title>Tutorials_Icon</title>
<g id="Layer_2">
	<g id="Header">
		<path class="st0" d="M59.4,111.1H8.5c-1.2,0.1-2.2-0.6-2.7-1.6c-0.1-0.4-0.2-0.8-0.2-1.2c0-4.4,0-8.8,0-13.1c0-28,0-55.9,0-83.9
			c0-0.4,0-0.7,0-1.1C5.9,9,7,8.1,8.3,8.1h101.9c1.2-0.1,2.3,0.6,2.8,1.7c0.2,0.5,0.2,1,0.2,1.5v83.9c0,4.2,0,8.4,0,12.6
			c0.1,0.8-0.2,1.6-0.7,2.3c-0.5,0.6-1.2,0.9-1.9,0.9L59.4,111.1L59.4,111.1z M59.4,25.7H11.5c-0.7,0-0.7,0-0.7,0.7v66.8
			c0,0.7,0,0.7,0.7,0.7h95.7c0.8,0,0.8,0,0.8-0.8V26.5c0-0.7,0-0.8-0.8-0.8H59.4z M58.6,13.4h-9.7c-0.4,0-0.6,0.1-0.6,0.6
			c0,1.9,0,3.9,0,5.9c0,0.4,0.1,0.6,0.6,0.6h19.2c0.4,0,0.6-0.1,0.6-0.6c0-1.9,0-3.9,0-5.8c0-0.7,0-0.7-0.7-0.7H58.6z M33,13.4h-9.6
			c-0.4,0-0.6,0.1-0.6,0.6c0,1.9,0,3.9,0,5.9c0,0.4,0.1,0.6,0.6,0.6h19.1c0.4,0,0.6-0.1,0.6-0.6c0-1.9,0-3.8,0-5.8
			c0-0.7,0-0.7-0.7-0.7H33z M84.1,13.4c-3.2,0-6.3,0-9.5,0c-0.5,0-0.6,0.2-0.6,0.6c0,1.9,0,3.9,0,5.8c0,0.4,0.1,0.6,0.6,0.6h19.1
			c0.5,0,0.6-0.2,0.6-0.6c0-1.9,0-3.9,0-5.8c0-0.5-0.1-0.6-0.6-0.6C90.4,13.4,87.3,13.4,84.1,13.4z M58.5,105.9c3.2,0,6.4,0,9.7,0
			c0.4,0,0.6-0.1,0.6-0.5c0-1.9,0-3.8,0-5.6c0-0.4-0.1-0.6-0.6-0.6c-6.4,0-12.8,0-19.2,0c-0.4,0-0.6,0.1-0.6,0.6c0,1.8,0,3.7,0,5.5
			c0,0.6,0,0.7,0.7,0.7L58.5,105.9L58.5,105.9z M32.9,105.9c3.2,0,6.4,0,9.6,0c0.4,0,0.6-0.1,0.6-0.6c0-1.9,0-3.7,0-5.6
			c0-0.4-0.2-0.6-0.6-0.6c-6.4,0-12.7,0-19.1,0c-0.5,0-0.6,0.2-0.6,0.6c0,1.9,0,3.7,0,5.6c0,0.5,0.2,0.6,0.6,0.6
			C26.6,105.9,29.8,105.9,32.9,105.9L32.9,105.9z M84.1,105.9c3.2,0,6.4,0,9.6,0c0.4,0,0.6-0.1,0.6-0.6c0-1.9,0-3.7,0-5.6
			c0-0.4-0.1-0.6-0.6-0.6c-6.4,0-12.8,0-19.2,0c-0.4,0-0.6,0.1-0.6,0.6c0,1.9,0,3.7,0,5.6c0,0.5,0.1,0.6,0.6,0.6
			C77.8,105.9,80.9,105.9,84.1,105.9L84.1,105.9z M103.8,13.4c-1.2,0-2.5,0-3.7,0c-0.5,0-0.6,0.1-0.6,0.5c0,2,0,4,0,6
			c0,0.4,0.1,0.5,0.5,0.5h7.4c0.4,0,0.5-0.1,0.5-0.5c0-2,0-4,0-6c0-0.4-0.2-0.5-0.6-0.5C106.2,13.4,105,13.4,103.8,13.4z
			 M103.7,105.9c1.2,0,2.5,0,3.7,0c0.4,0,0.5-0.1,0.5-0.5c0-1.9,0-3.8,0-5.7c0-0.4-0.1-0.5-0.5-0.5c-2.5,0-4.9,0-7.4,0
			c-0.4,0-0.5,0.1-0.5,0.5c0,1.9,0,3.8,0,5.7c0,0.4,0.1,0.6,0.6,0.6C101.3,105.9,102.5,105.9,103.7,105.9L103.7,105.9z M17.6,17
			c0-1,0-2,0-3c0-0.4-0.1-0.5-0.5-0.5c-1.9,0-3.7,0-5.6,0c-0.4,0-0.6,0.2-0.6,0.6c0,2,0,4,0,6c0,0.4,0.1,0.6,0.6,0.6
			c1.9,0,3.7,0,5.6,0c0.4,0,0.6-0.2,0.6-0.6C17.6,18.9,17.6,18,17.6,17z M17.6,102.6c0-1,0-1.9,0-2.8c0-0.4-0.1-0.6-0.5-0.6
			c-1.9,0-3.7,0-5.6,0c-0.4,0-0.5,0.1-0.5,0.5c0,1.9,0,3.8,0,5.7c0,0.4,0.1,0.5,0.5,0.5c1.9,0,3.8,0,5.7,0c0.4,0,0.5-0.1,0.5-0.5
			C17.6,104.6,17.6,103.6,17.6,102.6L17.6,102.6z"/>
		<path class="st0" d="M43.9,60.9V45.6c-0.1-1.5,1-2.7,2.5-2.8c0.5,0,1.1,0.1,1.5,0.4l9,4.5L75.8,57c1.2,0.6,2.3,1.2,3.5,1.7
			c1,0.4,1.7,1.4,1.6,2.5c0,1.1-0.7,2-1.7,2.4l-10.6,5l-20.9,9.9c-1.3,0.8-2.9,0.4-3.7-0.9c-0.3-0.5-0.4-1.1-0.4-1.7v-15H43.9z
			 M72.4,61.1l-0.5-0.3l-4-1.9l-18.2-9c-0.5-0.3-0.5-0.2-0.5,0.4v21.3c0,0.6,0,0.6,0.5,0.3l7.6-3.6L68.4,63L72.4,61.1z"/>
	</g>
</g>
</svg>
