<svg width="66" height="66" xmlns="http://www.w3.org/2000/svg" xmlns:xlink="http://www.w3.org/1999/xlink" xml:space="preserve" overflow="hidden"><defs><clipPath id="clip0"><rect x="559" y="563" width="66" height="66"/></clipPath></defs><g clip-path="url(#clip0)" transform="translate(-559 -563)"><path d="M600.999 600.987 600.999 596.688 599.624 596.688 599.624 602.361 600.999 600.987Z" stroke="#24724D" stroke-width="1.01111" fill="#24724D"/><path d="M603.751 598.236 603.751 587.062C603.751 586.683 603.443 586.375 603.063 586.375 602.684 586.375 602.376 586.683 602.376 587.062L602.376 599.611Z" stroke="#24724D" stroke-width="1.01111" fill="#24724D"/><path d="M598.251 603.735 598.251 587.062C598.251 586.683 597.943 586.375 597.563 586.375 597.184 586.375 596.876 586.683 596.876 587.062L596.876 605.11Z" stroke="#24724D" stroke-width="1.01111" fill="#24724D"/><path d="M588.847 599.958 588.847 587.062C588.847 586.683 588.539 586.375 588.16 586.375 587.78 586.375 587.472 586.683 587.472 587.062L587.472 598.583Z" stroke="#24724D" stroke-width="1.01111" fill="#24724D"/><path d="M583.347 597.326 583.347 587.062C583.347 586.683 583.039 586.375 582.66 586.375 582.28 586.375 581.972 586.683 581.972 587.062L581.972 598.701Z" stroke="#24724D" stroke-width="1.01111" fill="#24724D"/><path d="M563.567 596.837C563.906 597.008 564.32 596.871 564.49 596.532 564.66 596.195 564.526 595.784 564.19 595.612 563.825 595.401 563.632 594.982 563.709 594.567L565.432 584.774C565.47 584.646 565.541 584.53 565.638 584.438 566.368 583.889 567.195 583.485 568.075 583.245 568.79 583.053 569.527 582.95 570.267 582.938 570.983 582.945 571.694 583.047 572.383 583.242 573.268 583.481 574.1 583.887 574.833 584.438 574.931 584.512 575 584.617 575.028 584.735L577.171 596.127C577.241 596.5 577.601 596.745 577.974 596.675 578.252 596.622 578.469 596.405 578.522 596.127L580.653 584.776C580.678 584.642 580.752 584.522 580.859 584.438 581.594 583.887 582.427 583.481 583.313 583.241 584.001 583.046 584.712 582.944 585.426 582.938 586.163 582.95 586.895 583.052 587.607 583.242 588.501 583.485 589.341 583.897 590.082 584.454 590.153 584.531 590.211 584.62 590.251 584.717L592.069 596.109C592.121 596.438 592.404 596.683 592.738 596.688 593.069 596.683 593.354 596.451 593.425 596.127L595.556 584.776C595.581 584.642 595.655 584.522 595.763 584.438 596.497 583.887 597.33 583.481 598.217 583.241 598.904 583.046 599.615 582.944 600.329 582.938 601.066 582.949 601.799 583.052 602.51 583.242 603.405 583.485 604.245 583.897 604.985 584.454 605.057 584.532 605.114 584.621 605.155 584.719L606.85 595.139 608.046 593.938 606.499 584.438C606.389 584.002 606.138 583.614 605.786 583.335 604.908 582.677 603.914 582.193 602.855 581.908 602.03 581.69 601.182 581.574 600.329 581.562 599.494 581.57 598.663 581.688 597.859 581.913 596.804 582.199 595.812 582.683 594.938 583.338 594.569 583.622 594.314 584.027 594.217 584.482L592.811 591.953C592.807 591.974 592.801 591.974 592.797 591.953L591.595 584.441C591.485 584.005 591.234 583.617 590.882 583.338 590.005 582.68 589.01 582.196 587.951 581.91 587.127 581.692 586.279 581.575 585.426 581.562 584.591 581.569 583.76 581.687 582.956 581.913 581.902 582.199 580.911 582.683 580.037 583.338 579.668 583.621 579.413 584.027 579.316 584.482L577.853 592.246C577.853 592.266 577.844 592.266 577.84 592.246L576.372 584.442C576.271 584.002 576.019 583.611 575.658 583.338 574.785 582.683 573.795 582.199 572.741 581.914 571.935 581.688 571.103 581.569 570.266 581.562 569.41 581.575 568.558 581.693 567.731 581.913 566.688 582.194 565.708 582.67 564.843 583.316 564.463 583.608 564.196 584.022 564.087 584.489L562.352 594.333C562.173 595.343 562.663 596.353 563.567 596.837Z" stroke="#24724D" stroke-width="1.01111" fill="#24724D"/><path d="M585.408 580.188C583.51 580.188 581.971 578.648 581.971 576.75 581.971 574.852 583.51 573.312 585.408 573.312 587.307 573.312 588.846 574.852 588.846 576.75 588.844 578.648 587.306 580.185 585.408 580.188ZM585.408 574.688C584.269 574.688 583.346 575.611 583.346 576.75 583.346 577.889 584.269 578.812 585.408 578.812 586.547 578.812 587.471 577.889 587.471 576.75 587.471 575.611 586.547 574.688 585.408 574.688Z" stroke="#24724D" stroke-width="1.01111" fill="#24724D"/><path d="M570.283 580.188C568.385 580.188 566.846 578.648 566.846 576.75 566.846 574.852 568.385 573.312 570.283 573.312 572.182 573.312 573.721 574.852 573.721 576.75 573.719 578.648 572.181 580.185 570.283 580.188ZM570.283 574.688C569.144 574.688 568.221 575.611 568.221 576.75 568.221 577.889 569.144 578.812 570.283 578.812 571.422 578.812 572.346 577.889 572.346 576.75 572.346 575.611 571.422 574.688 570.283 574.688Z" stroke="#24724D" stroke-width="1.01111" fill="#24724D"/><path d="M600.312 580.188C598.413 580.188 596.874 578.648 596.874 576.75 596.874 574.852 598.413 573.312 600.312 573.312 602.21 573.312 603.749 574.852 603.749 576.75 603.747 578.648 602.209 580.185 600.312 580.188ZM600.312 574.688C599.173 574.688 598.249 575.611 598.249 576.75 598.249 577.889 599.173 578.812 600.312 578.812 601.451 578.812 602.374 577.889 602.374 576.75 602.374 575.611 601.451 574.688 600.312 574.688Z" stroke="#24724D" stroke-width="1.01111" fill="#24724D"/><path d="M566.848 601.512 566.848 611.828 568.846 611.828 570.971 609.703 570.971 601.512 572.346 601.512 572.346 608.326 573.721 606.951 573.721 601.512 576.344 601.512 573.723 592.065 573.723 587.062C573.723 586.683 573.415 586.375 573.035 586.375 572.656 586.375 572.348 586.683 572.348 587.062L572.348 592.159 574.538 600.134 566.033 600.134 568.223 592.25 568.223 587.06C568.223 586.68 567.915 586.372 567.535 586.372 567.156 586.372 566.848 586.68 566.848 587.06L566.848 592.062 564.225 601.512ZM568.223 601.512 569.598 601.512 569.598 610.453 568.223 610.453Z" stroke="#24724D" stroke-width="1.01111" fill="#24724D"/><path d="M611.25 585C610.87 585 610.562 585.308 610.562 585.688 610.562 586.067 610.87 586.375 611.25 586.375L618.511 586.375C618.52 586.375 618.522 586.38 618.516 586.387L595.438 609.465 584.781 598.809 564.701 618.889C564.428 619.153 564.421 619.588 564.685 619.861 564.948 620.134 565.384 620.142 565.657 619.878 565.662 619.872 565.668 619.867 565.674 619.861L584.781 600.753 595.438 611.41 619.488 587.359C619.495 587.353 619.5 587.355 619.5 587.364L619.5 594.625C619.5 595.005 619.808 595.312 620.188 595.312 620.567 595.312 620.875 595.005 620.875 594.625L620.875 585Z" stroke="#24724D" stroke-width="1.01111" fill="#24724D"/></g></svg>