<svg width="76" height="75" xmlns="http://www.w3.org/2000/svg" xmlns:xlink="http://www.w3.org/1999/xlink" xml:space="preserve" overflow="hidden"><defs><clipPath id="clip0"><rect x="181" y="554" width="76" height="75"/></clipPath></defs><g clip-path="url(#clip0)" transform="translate(-181 -554)"><path d="M41.1203 28.2297 38.2328 29.8969 38.2328 26.5625 36.6703 26.5625 36.6703 29.8969 33.7828 28.2297 33.0016 29.5828 35.8883 31.25 33.0016 32.9172 33.7828 34.2703 36.6703 32.6031 36.6703 35.9375 38.2328 35.9375 38.2328 32.6031 41.1203 34.2703 41.9016 32.9172 39.0141 31.25 41.9016 29.5828 41.1203 28.2297Z" stroke="#24724D" stroke-width="0.781312" fill="#24724D" transform="matrix(1.01333 0 0 1 181 554)"/><path d="M45.3125 53.1258 48.4375 53.1258 48.4375 56.25 45.3125 56.25Z" stroke="#24724D" stroke-width="0.781312" fill="#24724D" transform="matrix(1.01333 0 0 1 181 554)"/><path d="M45.3125 47.6562 48.4375 47.6562 48.4375 50.7805 45.3125 50.7805Z" stroke="#24724D" stroke-width="0.781312" fill="#24724D" transform="matrix(1.01333 0 0 1 181 554)"/><path d="M52.3438 53.125 55.4688 53.125 55.4688 56.2492 52.3438 56.2492Z" stroke="#24724D" stroke-width="0.781312" fill="#24724D" transform="matrix(1.01333 0 0 1 181 554)"/><path d="M52.3438 47.657 55.4688 47.657 55.4688 50.7812 52.3438 50.7812Z" stroke="#24724D" stroke-width="0.781312" fill="#24724D" transform="matrix(1.01333 0 0 1 181 554)"/><path d="M45.3125 42.1875 48.4375 42.1875 48.4375 45.3117 45.3125 45.3117Z" stroke="#24724D" stroke-width="0.781312" fill="#24724D" transform="matrix(1.01333 0 0 1 181 554)"/><path d="M52.3438 42.1875 55.4688 42.1875 55.4688 45.3117 52.3438 45.3117Z" stroke="#24724D" stroke-width="0.781312" fill="#24724D" transform="matrix(1.01333 0 0 1 181 554)"/><path d="M59.375 53.125 62.5 53.125 62.5 56.2492 59.375 56.2492Z" stroke="#24724D" stroke-width="0.781312" fill="#24724D" transform="matrix(1.01333 0 0 1 181 554)"/><path d="M59.375 47.657 62.5 47.657 62.5 50.7812 59.375 50.7812Z" stroke="#24724D" stroke-width="0.781312" fill="#24724D" transform="matrix(1.01333 0 0 1 181 554)"/><path d="M59.375 42.1875 62.5 42.1875 62.5 45.3117 59.375 45.3117Z" stroke="#24724D" stroke-width="0.781312" fill="#24724D" transform="matrix(1.01333 0 0 1 181 554)"/><path d="M45.3125 36.7195 48.4375 36.7195 48.4375 39.8438 45.3125 39.8438Z" stroke="#24724D" stroke-width="0.781312" fill="#24724D" transform="matrix(1.01333 0 0 1 181 554)"/><path d="M52.3438 36.7188 55.4688 36.7188 55.4688 39.843 52.3438 39.843Z" stroke="#24724D" stroke-width="0.781312" fill="#24724D" transform="matrix(1.01333 0 0 1 181 554)"/><path d="M59.375 36.7188 62.5 36.7188 62.5 39.843 59.375 39.843Z" stroke="#24724D" stroke-width="0.781312" fill="#24724D" transform="matrix(1.01333 0 0 1 181 554)"/><path d="M12.5 53.1258 15.625 53.1258 15.625 56.25 12.5 56.25Z" stroke="#24724D" stroke-width="0.781312" fill="#24724D" transform="matrix(1.01333 0 0 1 181 554)"/><path d="M12.5 47.6562 15.625 47.6562 15.625 50.7805 12.5 50.7805Z" stroke="#24724D" stroke-width="0.781312" fill="#24724D" transform="matrix(1.01333 0 0 1 181 554)"/><path d="M19.5312 53.125 22.6562 53.125 22.6562 56.2492 19.5312 56.2492Z" stroke="#24724D" stroke-width="0.781312" fill="#24724D" transform="matrix(1.01333 0 0 1 181 554)"/><path d="M19.5312 47.657 22.6562 47.657 22.6562 50.7812 19.5312 50.7812Z" stroke="#24724D" stroke-width="0.781312" fill="#24724D" transform="matrix(1.01333 0 0 1 181 554)"/><path d="M12.5 42.1875 15.625 42.1875 15.625 45.3117 12.5 45.3117Z" stroke="#24724D" stroke-width="0.781312" fill="#24724D" transform="matrix(1.01333 0 0 1 181 554)"/><path d="M19.5312 42.1875 22.6562 42.1875 22.6562 45.3117 19.5312 45.3117Z" stroke="#24724D" stroke-width="0.781312" fill="#24724D" transform="matrix(1.01333 0 0 1 181 554)"/><path d="M26.5625 53.125 29.6875 53.125 29.6875 56.2492 26.5625 56.2492Z" stroke="#24724D" stroke-width="0.781312" fill="#24724D" transform="matrix(1.01333 0 0 1 181 554)"/><path d="M26.5625 47.657 29.6875 47.657 29.6875 50.7812 26.5625 50.7812Z" stroke="#24724D" stroke-width="0.781312" fill="#24724D" transform="matrix(1.01333 0 0 1 181 554)"/><path d="M26.5625 42.1875 29.6875 42.1875 29.6875 45.3117 26.5625 45.3117Z" stroke="#24724D" stroke-width="0.781312" fill="#24724D" transform="matrix(1.01333 0 0 1 181 554)"/><path d="M12.5 36.7195 15.625 36.7195 15.625 39.8438 12.5 39.8438Z" stroke="#24724D" stroke-width="0.781312" fill="#24724D" transform="matrix(1.01333 0 0 1 181 554)"/><path d="M19.5312 36.7188 22.6562 36.7188 22.6562 39.843 19.5312 39.843Z" stroke="#24724D" stroke-width="0.781312" fill="#24724D" transform="matrix(1.01333 0 0 1 181 554)"/><path d="M26.5625 36.7188 29.6875 36.7188 29.6875 39.843 26.5625 39.843Z" stroke="#24724D" stroke-width="0.781312" fill="#24724D" transform="matrix(1.01333 0 0 1 181 554)"/><path d="M67.9688 30.4688 47.6562 30.4688 47.6562 27.6031 47.9813 27.9289 52.0516 23.8172 37.5 9.85625 22.6313 24.0555 26.7766 28.1742 27.3438 27.6062 27.3438 30.4688 5.46875 30.4688 5.46875 32.0312 7.03125 32.0312 7.03125 62.5 67.9688 62.5 67.9688 32.0312 69.5312 32.0312 69.5312 30.4688ZM26.7727 25.9672 24.8703 24.0773 37.5 12.0188 49.8258 23.8461 47.9781 25.7133 47.6562 25.3906 47.6562 25.3906 37.5 15.2344 27.3438 25.3906 27.3438 25.3977ZM35.1562 60.9375 35.1562 51.5625 39.8438 51.5625 39.8438 60.9375ZM66.4062 60.9375 41.4062 60.9375 41.4062 50 33.5938 50 33.5938 60.9375 8.59375 60.9375 8.59375 32.0312 28.9062 32.0312 28.9062 26.043 29.9539 24.9953 29.9539 24.9953 37.5 17.4391 44.3594 24.3 44.3594 24.3 46.0938 26.0414 46.0938 32.0312 66.4062 32.0312Z" stroke="#24724D" stroke-width="0.781312" fill="#24724D" transform="matrix(1.01333 0 0 1 181 554)"/></g></svg>