<svg width="64" height="64" xmlns="http://www.w3.org/2000/svg" xmlns:xlink="http://www.w3.org/1999/xlink" xml:space="preserve" overflow="hidden"><defs><clipPath id="clip0"><rect x="298" y="564" width="64" height="64"/></clipPath></defs><g clip-path="url(#clip0)" transform="translate(-298 -564)"><path d="M322.357 609.428C322.356 611.1 323.711 612.456 325.383 612.456 327.055 612.456 328.411 611.101 328.411 609.429 328.412 607.757 327.057 606.402 325.385 606.401 325.384 606.401 325.384 606.401 325.383 606.401 323.712 606.402 322.357 607.757 322.357 609.428ZM327.077 609.428C327.078 610.364 326.32 611.122 325.384 611.123 324.448 611.123 323.69 610.365 323.689 609.429 323.689 608.494 324.447 607.735 325.383 607.735 325.383 607.735 325.384 607.735 325.384 607.735 326.319 607.736 327.076 608.493 327.077 609.428Z" stroke="#24724D" stroke-width="1.04175" fill="#24724D"/><path d="M330.738 615.102C329.868 614.432 328.873 613.942 327.811 613.662 327.009 613.416 326.175 613.29 325.337 613.289 324.499 613.301 323.667 613.427 322.863 613.662 321.813 613.973 320.823 614.46 319.936 615.102 319.566 615.394 319.346 615.837 319.336 616.309L319.336 619.333 331.336 619.333 331.336 616.307C331.326 615.836 331.107 615.394 330.738 615.102ZM330.005 618 320.667 618 320.667 616.333C320.668 616.265 320.697 616.201 320.747 616.155 321.503 615.614 322.343 615.202 323.235 614.938 323.92 614.738 324.629 614.631 325.343 614.619 326.046 614.621 326.745 614.727 327.417 614.933L327.468 614.948C328.353 615.179 329.183 615.586 329.909 616.145 329.96 616.184 329.994 616.241 330.002 616.305Z" stroke="#24724D" stroke-width="1.04175" fill="#24724D"/><path d="M335.6 609.428C335.6 611.1 336.955 612.456 338.627 612.456 340.299 612.456 341.654 611.101 341.655 609.429 341.655 607.757 340.3 606.402 338.628 606.401 338.628 606.401 338.628 606.401 338.627 606.401 336.956 606.402 335.601 607.756 335.6 609.428ZM340.321 609.428C340.322 610.364 339.564 611.122 338.628 611.123 337.692 611.123 336.934 610.365 336.933 609.429 336.933 608.494 337.691 607.735 338.627 607.735 338.627 607.735 338.627 607.735 338.627 607.735 339.561 607.737 340.318 608.494 340.319 609.428Z" stroke="#24724D" stroke-width="1.04175" fill="#24724D"/><path d="M344.073 615.102C343.203 614.432 342.208 613.942 341.146 613.662 340.344 613.416 339.511 613.29 338.672 613.289 337.835 613.301 337.003 613.427 336.199 613.662 335.148 613.973 334.158 614.459 333.271 615.102 332.901 615.394 332.681 615.837 332.671 616.309L332.671 619.333 344.671 619.333 344.671 616.307C344.661 615.836 344.442 615.394 344.073 615.102ZM343.339 618 334.006 618 334.006 616.333C334.007 616.265 334.037 616.201 334.087 616.155 334.842 615.614 335.683 615.202 336.574 614.938 337.26 614.738 337.969 614.631 338.683 614.619 339.386 614.621 340.085 614.727 340.757 614.933L340.808 614.948C341.693 615.179 342.523 615.586 343.248 616.145 343.299 616.184 343.333 616.241 343.341 616.305Z" stroke="#24724D" stroke-width="1.04175" fill="#24724D"/><path d="M348.933 609.428C348.933 611.1 350.288 612.456 351.96 612.456 353.632 612.456 354.988 611.101 354.988 609.429 354.988 607.757 353.633 606.402 351.961 606.401 351.961 606.401 351.961 606.401 351.961 606.401 350.289 606.402 348.934 607.756 348.933 609.428ZM353.654 609.428C353.654 610.364 352.896 611.122 351.961 611.123 351.025 611.123 350.266 610.365 350.266 609.429 350.266 608.494 351.024 607.735 351.959 607.735 351.96 607.735 351.96 607.735 351.961 607.735 352.895 607.736 353.653 608.493 353.654 609.428Z" stroke="#24724D" stroke-width="1.04175" fill="#24724D"/><path d="M357.408 615.102C356.538 614.432 355.543 613.942 354.481 613.662 353.679 613.416 352.846 613.29 352.007 613.289 351.17 613.301 350.337 613.427 349.533 613.662 348.483 613.973 347.493 614.459 346.607 615.102 346.236 615.394 346.016 615.837 346.007 616.309L346.007 619.333 358.007 619.333 358.007 616.307C357.997 615.836 357.777 615.394 357.408 615.102ZM356.675 618 347.341 618 347.341 616.333C347.342 616.265 347.372 616.201 347.422 616.155 348.177 615.614 349.018 615.202 349.909 614.938 350.595 614.738 351.304 614.631 352.018 614.619 352.721 614.621 353.42 614.727 354.091 614.933L354.143 614.948C355.028 615.179 355.858 615.586 356.583 616.145 356.635 616.184 356.668 616.241 356.677 616.305Z" stroke="#24724D" stroke-width="1.04175" fill="#24724D"/><path d="M314 572.667C314 571.93 314.597 571.333 315.333 571.333L349.333 571.333C350.07 571.333 350.667 571.93 350.667 572.667L350.667 595.333C350.667 596.07 350.07 596.667 349.333 596.667L326.775 596.667 325.968 598 349.333 598C350.806 598 352 596.806 352 595.333L352 572.667C352 571.194 350.806 570 349.333 570L315.333 570C313.861 570 312.667 571.194 312.667 572.667L312.667 575.355C313.119 575.386 313.566 575.468 314 575.601Z" stroke="#24724D" stroke-width="1.04175" fill="#24724D"/><path d="M320.6 595.421C320.856 595.452 321.108 595.332 321.245 595.113L324.106 590.549C324.419 590.054 325.073 589.906 325.568 590.219 325.585 590.229 325.602 590.24 325.618 590.252 326.079 590.624 326.175 591.288 325.839 591.776L322.347 597.545C321.991 598.131 321.239 598.338 320.634 598.015 320.309 597.842 319.905 597.966 319.732 598.291 319.559 598.616 319.682 599.02 320.007 599.193 321.237 599.847 322.765 599.427 323.487 598.235L326.973 592.478C327.519 591.634 327.502 590.544 326.929 589.718L335.384 581.105C335.638 580.839 335.628 580.417 335.361 580.163 335.1 579.914 334.688 579.918 334.432 580.172L325.871 588.892C325.448 588.723 324.985 588.679 324.538 588.766 323.893 588.895 323.329 589.282 322.976 589.837L320.867 593.203 319.635 589.478 319.592 589.375C318.6 587.098 316.237 586.667 312.229 586.667 308.222 586.667 305.861 587.098 304.861 589.382 304.861 589.382 304.835 589.438 304.821 589.476 304.804 589.522 304.79 589.568 304.779 589.616L302.452 602.339C302.174 603.522 302.908 604.706 304.09 604.984 304.144 604.997 304.198 605.007 304.252 605.016L304.452 605.047C304.487 605.053 304.522 605.056 304.557 605.055 304.925 605.044 305.214 604.736 305.203 604.368 305.193 604.055 304.966 603.79 304.657 603.733L304.457 603.701C304.219 603.665 304.007 603.529 303.873 603.329 303.734 603.118 303.692 602.858 303.757 602.615L306.077 589.931 306.085 589.912C306.628 588.671 307.767 588 312.229 588 316.691 588 317.829 588.671 318.369 589.901L320.047 594.967C320.128 595.213 320.343 595.389 320.6 595.421Z" stroke="#24724D" stroke-width="1.04175" fill="#24724D"/><path d="M316.667 592.947C316.298 592.947 316 593.245 316 593.613L316 620.667 313 620.667 313 604.099 311.667 604.099 311.667 620.667 308.667 620.667 308.667 593.613C308.667 593.245 308.368 592.947 308 592.947 307.632 592.947 307.333 593.245 307.333 593.613L307.333 622 317.333 622 317.333 593.613C317.333 593.245 317.035 592.947 316.667 592.947Z" stroke="#24724D" stroke-width="1.04175" fill="#24724D"/><path d="M312.229 585.333C314.438 585.333 316.229 583.542 316.229 581.333 316.229 579.124 314.438 577.333 312.229 577.333 310.02 577.333 308.229 579.124 308.229 581.333 308.232 583.541 310.021 585.331 312.229 585.333ZM312.229 578.667C313.702 578.667 314.896 579.861 314.896 581.333 314.896 582.806 313.702 584 312.229 584 310.757 584 309.563 582.806 309.563 581.333 309.563 579.861 310.757 578.667 312.229 578.667Z" stroke="#24724D" stroke-width="1.04175" fill="#24724D"/></g></svg>