<?xml version="1.0" encoding="utf-8"?>
<!-- Generator: Adobe Illustrator 21.1.0, SVG Export Plug-In . SVG Version: 6.00 Build 0)  -->
<svg version="1.1" id="Capa_1" xmlns="http://www.w3.org/2000/svg" xmlns:xlink="http://www.w3.org/1999/xlink" x="0px" y="0px"
	 viewBox="0 0 60 60" style="enable-background:new 0 0 60 60;" xml:space="preserve">
<style type="text/css">
	.st0{fill:#207A50;}
</style>
<g>
	<path class="st0" d="M20,49c-2.2,0-4,1.8-4,4s1.8,4,4,4s4-1.8,4-4S22.2,49,20,49z M20,55c-1.1,0-2-0.9-2-2s0.9-2,2-2s2,0.9,2,2
		S21.1,55,20,55z"/>
	<path class="st0" d="M17,5h4c0.6,0,1-0.4,1-1s-0.4-1-1-1h-4c-0.6,0-1,0.4-1,1S16.4,5,17,5z"/>
	<path class="st0" d="M24,5h1c0.6,0,1-0.4,1-1s-0.4-1-1-1h-1c-0.6,0-1,0.4-1,1S23.4,5,24,5z"/>
	<path class="st0" d="M56,12H38V4.4C38,2,36,0,33.6,0H8.4C6,0,4,2,4,4.4v51.2C4,58,6,60,8.4,60h25.2c2.4,0,4.4-2,4.4-4.4V33h18V12z
		 M8.4,2h25.2C34.9,2,36,3.1,36,4.4V6H6V4.4C6,3.1,7.1,2,8.4,2z M33.6,58H8.4C7.1,58,6,56.9,6,55.6V48h30v7.6
		C36,56.9,34.9,58,33.6,58z M36,46H6V8h30v4H18v21h4v7l9.3-7H36V46z M54,31H38h-7.3L24,36v-5h-4V14h18h16V31z"/>
	<path class="st0" d="M25,21h10c0.6,0,1-0.4,1-1s-0.4-1-1-1H25c-0.6,0-1,0.4-1,1S24.4,21,25,21z"/>
	<path class="st0" d="M24,25c0,0.6,0.4,1,1,1h24c0.6,0,1-0.4,1-1s-0.4-1-1-1H25C24.4,24,24,24.4,24,25z"/>
</g>
</svg>
