<?xml version="1.0" encoding="utf-8"?>
<!-- Generator: Adobe Illustrator 21.1.0, SVG Export Plug-In . SVG Version: 6.00 Build 0)  -->
<svg version="1.1" id="Layer_1" xmlns="http://www.w3.org/2000/svg" xmlns:xlink="http://www.w3.org/1999/xlink" x="0px" y="0px"
	 viewBox="0 0 480 480" style="enable-background:new 0 0 480 480;" xml:space="preserve">
<style type="text/css">
	.st0{fill:#207A50;}
</style>
<path class="st0" d="M472,400h-8V152c0-22.1-17.9-40-40-40v-8c-0.1-48.6-39.4-87.9-88-88h-80c-48.6,0.1-87.9,39.4-88,88v8H56
	c-22.1,0-40,17.9-40,40v248H8c-4.4,0-8,3.6-8,8v32c0,13.3,10.7,24,24,24h432c13.3,0,24-10.7,24-24v-32C480,403.6,476.4,400,472,400z
	 M184,104c0-39.7,32.3-72,72-72h80c39.7,0,72,32.3,72,72v16c0,39.7-32.3,72-72,72c-2.1,0-4.2,0.8-5.7,2.3L288,236.7V200
	c0-4.4-3.6-8-8-8h-24c-39.7,0-72-32.3-72-72V104z M32,152c0-13.3,10.7-24,24-24h112.4c4.2,45.3,42.1,79.9,87.6,80h16v48
	c0,3.2,1.9,6.2,4.9,7.4s6.4,0.6,8.7-1.7l53.7-53.7c44.1-1.8,80.2-35.9,84.2-79.9h0.4c13.3,0,24,10.7,24,24v248H32V152z M280,424h-80
	v-8h80V424z M456,448H24c-4.4,0-8-3.6-8-8h72v-16H16v-8h168v8c0,8.8,7.2,16,16,16h80c8.8,0,16-7.2,16-16v-8h168v8h-72v16h72
	C464,444.4,460.4,448,456,448z"/>
<path class="st0" d="M224,72h144v16H224V72z"/>
<path class="st0" d="M224,104h144v16H224V104z"/>
<path class="st0" d="M224,136h144v16H224V136z"/>
<path class="st0" d="M200,344c4.4,0,8-3.6,8-8V216c0-4.4-3.6-8-8-8H72c-4.4,0-8,3.6-8,8v80c0,4.4,3.6,8,8,8h84.7l37.7,37.7
	C195.8,343.2,197.9,344,200,344z M192,316.7l-26.3-26.3c-1.5-1.5-3.5-2.3-5.7-2.3H80v-64h112V316.7z"/>
<path class="st0" d="M96,248h16v16H96V248z"/>
<path class="st0" d="M128,248h16v16h-16V248z"/>
<path class="st0" d="M160,248h16v16h-16V248z"/>
<path class="st0" d="M248,288h32v16h-32V288z"/>
<path class="st0" d="M296,288h80v16h-80V288z"/>
<path class="st0" d="M248,320h128v16H248V320z"/>
<path class="st0" d="M248,352h128v16H248V352z"/>
</svg>
